<svg width="428" height="926" viewBox="0 0 428 926" fill="none" xmlns="http://www.w3.org/2000/svg">
<rect width="428" height="926" fill="#262A36"/>
<g clip-path="url(#clip0_2312_7518)">
<path d="M206.889 469.16C204.036 469.16 201.614 468.702 199.623 467.785C197.632 466.868 196.122 465.606 195.102 463.989C194.077 462.377 193.562 460.553 193.562 458.512H199.757C199.757 459.37 199.995 460.208 200.47 461.016C200.946 461.83 201.708 462.49 202.763 462.988C203.818 463.491 205.195 463.742 206.889 463.742C208.463 463.742 209.761 463.52 210.791 463.077C211.816 462.633 212.589 462.051 213.109 461.327C213.629 460.602 213.891 459.784 213.891 458.862C213.891 457.738 213.401 456.831 212.421 456.131C211.44 455.436 209.91 455.002 207.83 454.82L204.977 454.553C201.857 454.287 199.366 453.321 197.509 451.65C195.651 449.979 194.725 447.765 194.725 445.014C194.725 442.944 195.216 441.164 196.196 439.671C197.177 438.177 198.549 437.023 200.317 436.21C202.085 435.397 204.155 434.992 206.537 434.992C208.919 434.992 211.133 435.421 212.936 436.279C214.733 437.137 216.115 438.345 217.081 439.897C218.047 441.45 218.527 443.279 218.527 445.374H212.331C212.331 444.516 212.123 443.708 211.707 442.959C211.291 442.204 210.652 441.588 209.791 441.115C208.929 440.642 207.844 440.405 206.537 440.405C205.23 440.405 204.254 440.622 203.442 441.051C202.625 441.48 202.005 442.042 201.589 442.737C201.173 443.432 200.965 444.196 200.965 445.019C200.965 446.025 201.337 446.907 202.08 447.662C202.823 448.416 203.996 448.855 205.601 448.968L208.409 449.234C210.756 449.412 212.797 449.9 214.54 450.698C216.278 451.497 217.635 452.577 218.616 453.937C219.597 455.298 220.087 456.939 220.087 458.862C220.087 460.903 219.552 462.702 218.482 464.25C217.413 465.803 215.887 467.011 213.911 467.863C211.935 468.721 209.593 469.15 206.894 469.15L206.889 469.16Z" fill="white"/>
<path d="M229.353 468.317L222.756 444.226H228.774L235.058 468.317H229.353ZM231.849 468.317L231.805 463.259H236.752V468.317H231.849ZM233.677 468.317L238.267 445.024H245.399L250.703 468.317H245.8L240.407 445.157H242.992L238.223 468.317H233.677ZM247.36 468.317V463.259H252.308L252.263 468.317H247.36ZM249.321 468.317L254.893 444.226H260.509L254.67 468.317H249.321Z" fill="white"/>
<path d="M263.139 448.84V444.226H272.722V448.84H263.139ZM268.799 441.342C267.581 441.342 266.68 441.031 266.1 440.41C265.521 439.789 265.234 438.976 265.234 437.97C265.234 436.964 265.521 436.195 266.1 435.574C266.68 434.953 267.576 434.642 268.799 434.642C270.023 434.642 270.909 434.953 271.474 435.574C272.038 436.195 272.321 436.994 272.321 437.97C272.321 438.946 272.038 439.789 271.474 440.41C270.909 441.031 270.018 441.342 268.799 441.342ZM266.526 468.317V444.226H272.722V468.317H266.526Z" fill="white"/>
<path d="M277.402 449.15V444.625H292.958V449.15H277.402ZM280.433 468.317V443.693C280.433 440.943 281.195 438.902 282.726 437.571C284.256 436.24 286.519 435.574 289.521 435.574H292.551V440.321H289.075C288.154 440.321 287.445 440.573 286.955 441.076C286.465 441.578 286.222 442.274 286.222 443.161V468.317H280.428H280.433Z" fill="white"/>
<path d="M294.161 448.751V444.226H311.277V448.751H294.161ZM307.8 468.628C305.542 468.628 303.695 468.342 302.249 467.765C300.802 467.188 299.738 466.212 299.039 464.837C298.341 463.461 297.989 461.608 297.989 459.271V437.438H303.828L303.784 459.665C303.784 460.849 304.101 461.761 304.74 462.397C305.378 463.032 306.29 463.348 307.483 463.348H311.272V468.628H307.795H307.8Z" fill="white"/>
<path d="M196.393 486.964V477.128H197.514V481.265H197.291C197.291 480.362 197.42 479.583 197.672 478.928C197.924 478.272 198.309 477.762 198.818 477.396C199.327 477.03 199.972 476.847 200.755 476.847H200.81C201.593 476.847 202.238 477.025 202.752 477.383C203.26 477.74 203.641 478.251 203.889 478.907C204.137 479.562 204.261 480.349 204.261 481.265H203.812C203.812 480.362 203.94 479.583 204.193 478.928C204.449 478.272 204.834 477.762 205.347 477.396C205.864 477.03 206.514 476.847 207.297 476.847H207.352C208.135 476.847 208.785 477.025 209.302 477.383C209.819 477.74 210.204 478.251 210.457 478.907C210.709 479.562 210.837 480.349 210.837 481.265V486.964H209.439V480.95C209.439 480.086 209.229 479.396 208.806 478.89C208.383 478.383 207.776 478.128 206.98 478.128C206.185 478.128 205.509 478.392 205.031 478.915C204.552 479.443 204.312 480.149 204.312 481.039V486.959H202.914V480.945C202.914 480.081 202.7 479.392 202.281 478.885C201.858 478.379 201.251 478.124 200.455 478.124C199.66 478.124 198.985 478.387 198.506 478.911C198.027 479.439 197.787 480.145 197.787 481.035V486.955H196.389L196.393 486.964Z" fill="white"/>
<path d="M222.476 487.283C221.629 487.283 220.889 487.138 220.248 486.848C219.607 486.559 219.068 486.167 218.628 485.678C218.187 485.189 217.849 484.644 217.623 484.035C217.392 483.431 217.276 482.809 217.276 482.179V481.92C217.276 481.29 217.396 480.668 217.631 480.056C217.866 479.443 218.208 478.894 218.657 478.413C219.106 477.932 219.649 477.544 220.287 477.255C220.928 476.966 221.659 476.821 222.476 476.821C223.292 476.821 224.045 476.966 224.686 477.255C225.328 477.544 225.871 477.932 226.32 478.413C226.769 478.894 227.106 479.443 227.337 480.056C227.568 480.668 227.684 481.29 227.684 481.92V482.179C227.684 482.809 227.573 483.431 227.346 484.035C227.124 484.639 226.79 485.189 226.35 485.678C225.909 486.167 225.366 486.555 224.716 486.848C224.071 487.138 223.322 487.283 222.48 487.283H222.476ZM222.476 486.04C223.297 486.04 223.989 485.857 224.554 485.491C225.118 485.125 225.55 484.644 225.849 484.044C226.149 483.443 226.298 482.78 226.298 482.047C226.298 481.315 226.144 480.634 225.841 480.034C225.537 479.434 225.097 478.958 224.528 478.604C223.955 478.251 223.271 478.076 222.476 478.076C221.68 478.076 221.013 478.251 220.445 478.604C219.872 478.958 219.436 479.434 219.132 480.034C218.828 480.634 218.675 481.307 218.675 482.047C218.675 482.788 218.824 483.443 219.124 484.044C219.423 484.644 219.855 485.125 220.419 485.491C220.983 485.857 221.672 486.04 222.48 486.04H222.476Z" fill="white"/>
<path d="M234.26 486.964V477.145H235.381V481.265H235.158C235.158 480.349 235.295 479.562 235.569 478.907C235.842 478.251 236.253 477.745 236.8 477.383C237.347 477.025 238.036 476.847 238.87 476.847H238.925C240.169 476.847 241.093 477.234 241.704 478.004C242.312 478.779 242.619 479.864 242.619 481.26V486.959H241.238V480.967C241.238 480.111 241.003 479.426 240.529 478.907C240.054 478.387 239.4 478.128 238.553 478.128C237.707 478.128 236.984 478.396 236.454 478.936C235.924 479.473 235.663 480.183 235.663 481.06V486.964H234.265H234.26Z" fill="white"/>
<path d="M253.946 487.283C253.099 487.283 252.368 487.138 251.748 486.848C251.128 486.559 250.615 486.167 250.217 485.678C249.82 485.189 249.525 484.644 249.332 484.035C249.14 483.431 249.042 482.805 249.042 482.162V481.903C249.042 481.273 249.136 480.651 249.332 480.047C249.525 479.443 249.82 478.898 250.217 478.413C250.615 477.932 251.115 477.544 251.718 477.255C252.321 476.966 253.027 476.821 253.835 476.821C254.865 476.821 255.729 477.051 256.417 477.506C257.106 477.962 257.627 478.549 257.974 479.26C258.32 479.97 258.495 480.737 258.495 481.55V482.273H249.679V481.196H257.529L257.174 481.733C257.174 481.005 257.046 480.362 256.794 479.813C256.537 479.264 256.165 478.83 255.673 478.515C255.182 478.2 254.57 478.042 253.839 478.042C253.069 478.042 252.428 478.221 251.919 478.579C251.41 478.936 251.025 479.413 250.773 480.009C250.517 480.605 250.393 481.277 250.393 482.03C250.393 482.784 250.521 483.448 250.773 484.061C251.025 484.674 251.419 485.159 251.949 485.516C252.479 485.874 253.146 486.053 253.954 486.053C254.814 486.053 255.507 485.857 256.041 485.469C256.575 485.078 256.905 484.618 257.029 484.086H258.333C258.209 484.742 257.948 485.308 257.55 485.784C257.153 486.261 256.648 486.627 256.041 486.887C255.434 487.146 254.737 487.278 253.954 487.278L253.946 487.283Z" fill="white"/>
<path d="M266.995 486.725L263.417 477.149H264.853L268.304 486.725H267H266.995ZM263.955 490.79V489.547H265.221C265.657 489.547 266.029 489.496 266.341 489.389C266.653 489.283 266.914 489.1 267.124 488.84C267.333 488.581 267.517 488.223 267.662 487.764L270.98 477.149H272.34L268.872 488.155C268.676 488.785 268.402 489.296 268.051 489.687C267.705 490.079 267.286 490.36 266.803 490.53C266.32 490.705 265.764 490.79 265.144 490.79H263.951H263.955ZM267.162 486.725V485.555H268.932V486.725H267.162Z" fill="white"/>
<path d="M124.45 470.407C126.985 470.407 129.521 470.397 132.057 470.407C140.897 470.442 147.989 475.894 150.198 484.407C150.48 485.497 150.514 486.651 150.693 487.774C150.807 488.474 150.549 488.682 149.841 488.682C144.017 488.657 138.198 488.672 132.374 488.667C130.239 488.667 128.144 488.341 126.158 487.558C118.809 484.634 114.812 479.207 114.025 471.388C113.945 470.58 114.257 470.392 115.005 470.397C118.155 470.427 121.3 470.412 124.45 470.412V470.407Z" fill="white"/>
<path d="M144.765 432.079C147.885 432.079 151.015 431.896 154.12 432.113C163.228 432.739 170.424 440.183 170.934 449.274C170.978 450.033 170.78 450.289 169.983 450.284C164.248 450.255 158.508 450.294 152.768 450.265C144.156 450.215 137.024 444.724 134.815 436.427C134.503 435.259 134.459 434.021 134.28 432.813C134.191 432.177 134.459 432 135.073 432C138.302 432.025 141.536 432.01 144.765 432.01C144.765 432.035 144.765 432.054 144.765 432.079Z" fill="white"/>
<path d="M132.359 450.289C132.359 455.894 132.359 461.494 132.359 467.1C132.359 468.569 132.359 468.583 130.918 468.435C123.841 467.711 118.71 464.142 115.679 457.778C110.945 447.82 116.665 435.633 127.362 432.74C128.669 432.385 130.041 432.276 131.383 432.035C132.166 431.897 132.384 432.217 132.379 432.976C132.354 438.744 132.364 444.517 132.364 450.284H132.359V450.289Z" fill="white"/>
<path d="M152.639 470.417C152.639 464.674 152.639 458.931 152.639 453.193C152.639 452.118 152.664 452.098 153.704 452.158C162.787 452.67 170.196 459.887 170.889 468.904C171.592 478.024 165.555 486.197 156.631 488.164C155.631 488.386 154.596 488.455 153.58 488.622C152.837 488.746 152.625 488.47 152.625 487.73C152.649 481.962 152.639 476.19 152.639 470.422H152.634L152.639 470.417Z" fill="white"/>
</g>
<g clip-path="url(#clip1_2312_7518)">
<path d="M206.889 469.16C204.036 469.16 201.614 468.702 199.623 467.785C197.632 466.868 196.122 465.606 195.102 463.989C194.077 462.377 193.562 460.553 193.562 458.512H199.757C199.757 459.37 199.995 460.208 200.47 461.016C200.946 461.83 201.708 462.49 202.763 462.988C203.818 463.491 205.195 463.742 206.889 463.742C208.463 463.742 209.761 463.52 210.791 463.077C211.816 462.633 212.589 462.051 213.109 461.327C213.629 460.602 213.891 459.784 213.891 458.862C213.891 457.738 213.401 456.831 212.421 456.131C211.44 455.436 209.91 455.002 207.83 454.82L204.977 454.553C201.857 454.287 199.366 453.321 197.509 451.65C195.651 449.979 194.725 447.765 194.725 445.014C194.725 442.944 195.216 441.164 196.196 439.671C197.177 438.177 198.549 437.023 200.317 436.21C202.085 435.397 204.155 434.992 206.537 434.992C208.919 434.992 211.133 435.421 212.936 436.279C214.733 437.137 216.115 438.345 217.081 439.897C218.047 441.45 218.527 443.279 218.527 445.374H212.331C212.331 444.516 212.123 443.708 211.707 442.959C211.291 442.204 210.652 441.588 209.791 441.115C208.929 440.642 207.844 440.405 206.537 440.405C205.23 440.405 204.254 440.622 203.442 441.051C202.625 441.48 202.005 442.042 201.589 442.737C201.173 443.432 200.965 444.196 200.965 445.019C200.965 446.025 201.337 446.907 202.08 447.662C202.823 448.416 203.996 448.855 205.601 448.968L208.409 449.234C210.756 449.412 212.797 449.9 214.54 450.698C216.278 451.497 217.635 452.577 218.616 453.937C219.597 455.298 220.087 456.939 220.087 458.862C220.087 460.903 219.552 462.702 218.482 464.25C217.413 465.803 215.887 467.011 213.911 467.863C211.935 468.721 209.593 469.15 206.894 469.15L206.889 469.16Z" fill="white"/>
<path d="M229.353 468.317L222.756 444.226H228.774L235.058 468.317H229.353ZM231.849 468.317L231.805 463.259H236.752V468.317H231.849ZM233.677 468.317L238.267 445.024H245.399L250.703 468.317H245.8L240.407 445.157H242.992L238.223 468.317H233.677ZM247.36 468.317V463.259H252.308L252.263 468.317H247.36ZM249.321 468.317L254.893 444.226H260.509L254.67 468.317H249.321Z" fill="white"/>
<path d="M263.139 448.84V444.226H272.722V448.84H263.139ZM268.799 441.342C267.581 441.342 266.68 441.031 266.1 440.41C265.521 439.789 265.234 438.976 265.234 437.97C265.234 436.964 265.521 436.195 266.1 435.574C266.68 434.953 267.576 434.642 268.799 434.642C270.023 434.642 270.909 434.953 271.474 435.574C272.038 436.195 272.321 436.994 272.321 437.97C272.321 438.946 272.038 439.789 271.474 440.41C270.909 441.031 270.018 441.342 268.799 441.342ZM266.526 468.317V444.226H272.722V468.317H266.526Z" fill="white"/>
<path d="M277.402 449.15V444.625H292.958V449.15H277.402ZM280.433 468.317V443.693C280.433 440.943 281.195 438.902 282.726 437.571C284.256 436.24 286.519 435.574 289.521 435.574H292.551V440.321H289.075C288.154 440.321 287.445 440.573 286.955 441.076C286.465 441.578 286.222 442.274 286.222 443.161V468.317H280.428H280.433Z" fill="white"/>
<path d="M294.161 448.751V444.226H311.277V448.751H294.161ZM307.8 468.628C305.542 468.628 303.695 468.342 302.249 467.765C300.802 467.188 299.738 466.212 299.039 464.837C298.341 463.461 297.989 461.608 297.989 459.271V437.438H303.828L303.784 459.665C303.784 460.849 304.101 461.761 304.74 462.397C305.378 463.032 306.29 463.348 307.483 463.348H311.272V468.628H307.795H307.8Z" fill="white"/>
<path d="M196.393 486.964V477.128H197.514V481.265H197.291C197.291 480.362 197.42 479.583 197.672 478.928C197.924 478.272 198.309 477.762 198.818 477.396C199.327 477.03 199.972 476.847 200.755 476.847H200.81C201.593 476.847 202.238 477.025 202.752 477.383C203.26 477.74 203.641 478.251 203.889 478.907C204.137 479.562 204.261 480.349 204.261 481.265H203.812C203.812 480.362 203.94 479.583 204.193 478.928C204.449 478.272 204.834 477.762 205.347 477.396C205.864 477.03 206.514 476.847 207.297 476.847H207.352C208.135 476.847 208.785 477.025 209.302 477.383C209.819 477.74 210.204 478.251 210.457 478.907C210.709 479.562 210.837 480.349 210.837 481.265V486.964H209.439V480.95C209.439 480.086 209.229 479.396 208.806 478.89C208.383 478.383 207.776 478.128 206.98 478.128C206.185 478.128 205.509 478.392 205.031 478.915C204.552 479.443 204.312 480.149 204.312 481.039V486.959H202.914V480.945C202.914 480.081 202.7 479.392 202.281 478.885C201.858 478.379 201.251 478.124 200.455 478.124C199.66 478.124 198.985 478.387 198.506 478.911C198.027 479.439 197.787 480.145 197.787 481.035V486.955H196.389L196.393 486.964Z" fill="white"/>
<path d="M222.476 487.283C221.629 487.283 220.889 487.138 220.248 486.848C219.607 486.559 219.068 486.167 218.628 485.678C218.187 485.189 217.849 484.644 217.623 484.035C217.392 483.431 217.276 482.809 217.276 482.179V481.92C217.276 481.29 217.396 480.668 217.631 480.056C217.866 479.443 218.208 478.894 218.657 478.413C219.106 477.932 219.649 477.544 220.287 477.255C220.928 476.966 221.659 476.821 222.476 476.821C223.292 476.821 224.045 476.966 224.686 477.255C225.328 477.544 225.871 477.932 226.32 478.413C226.769 478.894 227.106 479.443 227.337 480.056C227.568 480.668 227.684 481.29 227.684 481.92V482.179C227.684 482.809 227.573 483.431 227.346 484.035C227.124 484.639 226.79 485.189 226.35 485.678C225.909 486.167 225.366 486.555 224.716 486.848C224.071 487.138 223.322 487.283 222.48 487.283H222.476ZM222.476 486.04C223.297 486.04 223.989 485.857 224.554 485.491C225.118 485.125 225.55 484.644 225.849 484.044C226.149 483.443 226.298 482.78 226.298 482.047C226.298 481.315 226.144 480.634 225.841 480.034C225.537 479.434 225.097 478.958 224.528 478.604C223.955 478.251 223.271 478.076 222.476 478.076C221.68 478.076 221.013 478.251 220.445 478.604C219.872 478.958 219.436 479.434 219.132 480.034C218.828 480.634 218.675 481.307 218.675 482.047C218.675 482.788 218.824 483.443 219.124 484.044C219.423 484.644 219.855 485.125 220.419 485.491C220.983 485.857 221.672 486.04 222.48 486.04H222.476Z" fill="white"/>
<path d="M234.26 486.964V477.145H235.381V481.265H235.158C235.158 480.349 235.295 479.562 235.569 478.907C235.842 478.251 236.253 477.745 236.8 477.383C237.347 477.025 238.036 476.847 238.87 476.847H238.925C240.169 476.847 241.093 477.234 241.704 478.004C242.312 478.779 242.619 479.864 242.619 481.26V486.959H241.238V480.967C241.238 480.111 241.003 479.426 240.529 478.907C240.054 478.387 239.4 478.128 238.553 478.128C237.707 478.128 236.984 478.396 236.454 478.936C235.924 479.473 235.663 480.183 235.663 481.06V486.964H234.265H234.26Z" fill="white"/>
<path d="M253.946 487.283C253.099 487.283 252.368 487.138 251.748 486.848C251.128 486.559 250.615 486.167 250.217 485.678C249.82 485.189 249.525 484.644 249.332 484.035C249.14 483.431 249.042 482.805 249.042 482.162V481.903C249.042 481.273 249.136 480.651 249.332 480.047C249.525 479.443 249.82 478.898 250.217 478.413C250.615 477.932 251.115 477.544 251.718 477.255C252.321 476.966 253.027 476.821 253.835 476.821C254.865 476.821 255.729 477.051 256.417 477.506C257.106 477.962 257.627 478.549 257.974 479.26C258.32 479.97 258.495 480.737 258.495 481.55V482.273H249.679V481.196H257.529L257.174 481.733C257.174 481.005 257.046 480.362 256.794 479.813C256.537 479.264 256.165 478.83 255.673 478.515C255.182 478.2 254.57 478.042 253.839 478.042C253.069 478.042 252.428 478.221 251.919 478.579C251.41 478.936 251.025 479.413 250.773 480.009C250.517 480.605 250.393 481.277 250.393 482.03C250.393 482.784 250.521 483.448 250.773 484.061C251.025 484.674 251.419 485.159 251.949 485.516C252.479 485.874 253.146 486.053 253.954 486.053C254.814 486.053 255.507 485.857 256.041 485.469C256.575 485.078 256.905 484.618 257.029 484.086H258.333C258.209 484.742 257.948 485.308 257.55 485.784C257.153 486.261 256.648 486.627 256.041 486.887C255.434 487.146 254.737 487.278 253.954 487.278L253.946 487.283Z" fill="white"/>
<path d="M266.995 486.725L263.417 477.149H264.853L268.304 486.725H267H266.995ZM263.955 490.79V489.547H265.221C265.657 489.547 266.029 489.496 266.341 489.389C266.653 489.283 266.914 489.1 267.124 488.84C267.333 488.581 267.517 488.223 267.662 487.764L270.98 477.149H272.34L268.872 488.155C268.676 488.785 268.402 489.296 268.051 489.687C267.705 490.079 267.286 490.36 266.803 490.53C266.32 490.705 265.764 490.79 265.144 490.79H263.951H263.955ZM267.162 486.725V485.555H268.932V486.725H267.162Z" fill="white"/>
<path d="M124.45 470.407C126.985 470.407 129.521 470.397 132.057 470.407C140.897 470.442 147.989 475.894 150.198 484.407C150.48 485.497 150.514 486.651 150.693 487.774C150.807 488.474 150.549 488.682 149.841 488.682C144.017 488.657 138.198 488.672 132.374 488.667C130.239 488.667 128.144 488.341 126.158 487.558C118.809 484.634 114.812 479.207 114.025 471.388C113.945 470.58 114.257 470.392 115.005 470.397C118.155 470.427 121.3 470.412 124.45 470.412V470.407Z" fill="white"/>
<path d="M144.765 432.079C147.885 432.079 151.015 431.896 154.12 432.113C163.228 432.739 170.424 440.183 170.934 449.274C170.978 450.033 170.78 450.289 169.983 450.284C164.248 450.255 158.508 450.294 152.768 450.265C144.156 450.215 137.024 444.724 134.815 436.427C134.503 435.259 134.459 434.021 134.28 432.813C134.191 432.177 134.459 432 135.073 432C138.302 432.025 141.536 432.01 144.765 432.01C144.765 432.035 144.765 432.054 144.765 432.079Z" fill="white"/>
<path d="M132.359 450.289C132.359 455.894 132.359 461.494 132.359 467.1C132.359 468.569 132.359 468.583 130.918 468.435C123.841 467.711 118.71 464.142 115.679 457.778C110.945 447.82 116.665 435.633 127.362 432.74C128.669 432.385 130.041 432.276 131.383 432.035C132.166 431.897 132.384 432.217 132.379 432.976C132.354 438.744 132.364 444.517 132.364 450.284H132.359V450.289Z" fill="white"/>
<path d="M152.639 470.417C152.639 464.674 152.639 458.931 152.639 453.193C152.639 452.118 152.664 452.098 153.704 452.158C162.787 452.67 170.196 459.887 170.889 468.904C171.592 478.024 165.555 486.197 156.631 488.164C155.631 488.386 154.596 488.455 153.58 488.622C152.837 488.746 152.625 488.47 152.625 487.73C152.649 481.962 152.639 476.19 152.639 470.422H152.634L152.639 470.417Z" fill="white"/>
</g>
<defs>
<clipPath id="clip0_2312_7518">
<rect width="197.277" height="61" fill="white" transform="translate(114 432)"/>
</clipPath>
<clipPath id="clip1_2312_7518">
<rect width="197.277" height="61" fill="white" transform="translate(114 432)"/>
</clipPath>
</defs>
</svg>
