<svg width="428" height="926" viewBox="0 0 428 926" fill="none" xmlns="http://www.w3.org/2000/svg">
<rect x="6.25" y="6.25" width="415.5" height="913.5" rx="73.75" fill="white"/>
<path d="M47.8373 280.011C48.3406 291.639 48.8655 303.662 49.3764 315.394C50.0718 318.353 50.9612 321.17 52.0807 323.771C68.6118 362.174 145.256 376.502 145.256 376.502C146.263 372.435 146.862 370.127 148.288 365.776C145.168 365.802 148.707 346.921 157.385 333.599L99.2425 311.788C91.691 307.112 88.6397 303.647 89.2792 293.144L92.5282 254.773L92.8458 293.115C92.4233 300.375 93.7755 303.584 99.2056 307.329L174.289 329L173.278 206.843L143.794 199.954L144.754 315.869L140.811 270.424L101.908 202.976L96.5212 198.562C96.5212 198.562 64.2191 207.839 55.7192 224.76C50.3475 235.454 51.512 255.113 51.512 255.113C51.512 255.113 49.027 266.019 47.8373 280.011Z" fill="#262A36"/>
<path d="M362.89 167.821C362.089 153.125 357.134 149.576 340.451 150.172L316.376 150.372L296.76 150.534L277.144 150.697L200.461 151.332C185.241 151.458 178.529 159.308 177.026 178.236C253.03 175.59 340.636 172.464 340.636 172.464C350.102 172.96 357.679 174.285 363.266 177.313L362.89 167.821Z" fill="#F5D573"/>
<path fill-rule="evenodd" clip-rule="evenodd" d="M183.987 315.544C184.532 325.682 188.159 335.536 191.823 336.806L203.685 325.19L198.281 330.944C199.985 329.205 201.762 327.284 203.685 325.19L197.088 336.806L347.308 332.026C366.497 331.714 369.479 325.745 368.53 310.449L363.266 177.313C357.679 174.285 350.102 172.96 340.636 172.464C340.636 172.464 253.03 175.59 177.026 178.236C176.768 181.485 176.664 185.061 176.697 188.981C176.918 215.73 183.987 315.544 183.987 315.544ZM266.865 201.61C255.621 203.063 249.482 213.208 247.425 223.172L292.008 222.803C289.805 210.056 279.601 199.964 266.865 201.61ZM277.439 186.363C276.902 180.95 272.096 177.232 266.665 177.535C261.005 177.85 256.384 182.675 256.946 188.316C257.459 193.467 261.653 196.992 266.828 197.151C272.734 197.334 278.023 192.244 277.439 186.363ZM217.796 306.347L216.712 283.171L324.566 277.819C327.177 277.707 328.057 277.944 329.032 278.674L330.108 300.958L217.796 306.347Z" fill="#F5D573"/>
<path d="M216.712 283.171L217.796 306.347L330.108 300.958L329.032 278.674C328.057 277.944 327.177 277.707 324.566 277.819L216.712 283.171Z" fill="#F5D573"/>
<path d="M108.061 192.224L110.891 210.927L124.2 202.791L135.858 210.72L137.611 207.139L137.508 194.656L135.702 191.995L124.163 198.333L110.736 192.202L108.061 192.224Z" fill="#262A36"/>
<path fill-rule="evenodd" clip-rule="evenodd" d="M67.8479 181.857C55.3647 181.96 44.687 184.724 44.842 203.449C44.9068 211.278 46.2668 243.726 47.8373 280.011C49.027 266.019 51.512 255.113 51.512 255.113C51.512 255.113 50.3475 235.454 55.7192 224.76C64.2191 207.839 96.5212 198.562 96.5212 198.562L101.908 202.976L140.811 270.424L144.754 315.869L143.794 199.954L173.278 206.843L174.289 329L99.2056 307.329C93.7755 303.584 92.4233 300.375 92.8458 293.115L92.5282 254.773L89.2792 293.144C88.6397 303.647 91.691 307.112 99.2425 311.788L157.385 333.599C148.707 346.921 145.168 365.802 148.288 365.776C146.862 370.127 146.263 372.435 145.256 376.502C145.256 376.502 68.6118 362.174 52.0807 323.771C50.9612 321.17 50.0718 318.353 49.3764 315.394C51.0839 354.612 52.6342 390.59 52.6937 397.778C52.8267 413.828 61.8171 422.671 69.842 422.604C77.8669 422.538 354.221 413.115 364.921 413.026C375.621 412.938 383.587 405.738 383.498 395.038C383.41 384.338 374.932 222.116 374.755 200.716C374.654 188.468 370.743 181.365 363.266 177.313L368.53 310.449C369.479 325.745 366.497 331.714 347.308 332.026L197.088 336.806L198.281 330.944L203.685 325.19L191.823 336.806C188.159 335.536 184.532 325.682 183.987 315.544C183.987 315.544 176.918 215.73 176.697 188.981C176.664 185.061 176.768 181.485 177.026 178.236C160.212 178.821 143.965 179.383 129.36 179.882C123.062 180.097 117.07 180.301 111.469 180.49C87.5677 181.296 70.7961 181.832 67.8479 181.857ZM110.891 210.927L108.061 192.224L110.736 192.202L124.163 198.333L135.702 191.995L137.508 194.656L137.611 207.139L135.858 210.72L124.2 202.791L110.891 210.927Z" fill="#D93D64" fill-opacity="0.49"/>
<path d="M247.425 223.172C249.482 213.208 255.621 203.063 266.865 201.61C279.601 199.964 289.805 210.056 292.008 222.803L247.425 223.172Z" fill="#262A36"/>
<path d="M266.665 177.535C272.096 177.232 276.902 180.95 277.439 186.363C278.023 192.244 272.734 197.334 266.828 197.151C261.653 196.992 257.459 193.467 256.946 188.316C256.384 182.675 261.005 177.85 266.665 177.535Z" fill="#262A36"/>
<path d="M203.685 325.19L191.823 336.806C188.159 335.536 184.532 325.682 183.987 315.544C183.987 315.544 176.918 215.73 176.697 188.981C176.664 185.061 176.768 181.485 177.026 178.236M203.685 325.19L198.281 330.944M203.685 325.19C201.762 327.284 199.985 329.205 198.281 330.944M203.685 325.19L197.088 336.806M197.088 336.806L347.308 332.026C366.497 331.714 369.479 325.745 368.53 310.449L363.266 177.313M197.088 336.806L194.017 342.213M197.088 336.806L198.281 330.944M277.144 150.697C277.144 150.697 218.294 151.184 200.461 151.332M277.144 150.697L200.461 151.332M277.144 150.697L296.76 150.534L316.376 150.372L340.451 150.172C357.134 149.576 362.089 153.125 362.89 167.821L363.266 177.313M200.461 151.332C185.241 151.458 178.529 159.308 177.026 178.236M216.528 260.88L216.358 240.372L326.894 235.889L327.071 257.289L222.791 263.503M112.482 187.729L111.469 180.49M111.914 119.072C111.914 119.072 113.47 138.852 105.827 137.848C103.968 137.604 101.354 136.102 101.354 136.102C97.314 139.068 96.6592 141.453 97.8762 146.831C99.4608 150.45 100.997 152.361 104.192 155.696L107.743 153.883L111.469 180.49M95.9747 132.579C92.9258 114.505 98.2235 111.613 116.342 115.468M91.3613 113.892C106.456 99.2547 115.048 99.1856 130.579 111.783M126.033 101.12C135.207 100.847 136.556 104.288 139.481 109.926M139.511 113.493L143.213 129.81M121.281 173.389C136.477 185.73 151.803 167.443 150.617 162.445L143.213 129.81M129.439 189.372L129.36 179.882M129.335 176.889L129.36 179.882M120.956 134.156C123.534 130.897 125.198 130.069 128.966 132.306M136.991 132.24C138.698 128.454 140.126 128.158 143.213 129.81M123.683 140.375C127.181 137.693 128.688 137.9 130.816 140.316M139.71 137.567C141.098 136.925 141.88 137.016 143.277 137.538M137.02 135.806L139.828 151.834C138.891 157.446 137.219 156.827 133.602 153.669M126.542 162.645C129.892 160.688 131.774 159.619 135.444 160.787M139.887 158.967C142.761 158.625 143.795 159.183 145.252 160.706M157.414 337.166C155.626 336.493 167.245 339.759 167.245 339.759C162.302 352.15 160.54 358.369 157.68 369.265L148.288 365.776M148.288 365.776C146.862 370.127 146.263 372.435 145.256 376.502C145.256 376.502 68.6118 362.174 52.0807 323.771C50.9612 321.17 50.0718 318.353 49.3764 315.394M148.288 365.776C145.168 365.802 148.707 346.921 157.385 333.599L99.2425 311.788C91.691 307.112 88.6397 303.647 89.2792 293.144L92.5282 254.773L92.8458 293.115C92.4233 300.375 93.7755 303.584 99.2056 307.329L174.289 329L173.278 206.843L143.794 199.954L144.754 315.869L140.811 270.424L101.908 202.976L96.5212 198.562C96.5212 198.562 64.2191 207.839 55.7192 224.76C50.3475 235.454 51.512 255.113 51.512 255.113C51.512 255.113 49.027 266.019 47.8373 280.011M171.725 342.398C183.872 343.284 190.258 339.132 198.281 330.944M167.429 362.051C184.502 361.944 193.315 359.668 206.552 348.351L220.789 344.666L237.686 339.176M47.8373 280.011C48.3406 291.639 48.8655 303.662 49.3764 315.394M47.8373 280.011C46.889 291.164 46.7637 304.279 49.3764 315.394M47.8373 280.011C46.2668 243.726 44.9068 211.278 44.842 203.449C44.687 184.724 55.3647 181.96 67.8479 181.857C70.7961 181.832 87.5677 181.296 111.469 180.49M49.3764 315.394C51.0839 354.612 52.6342 390.59 52.6937 397.778C52.8267 413.828 61.8171 422.671 69.842 422.604C77.8669 422.538 354.221 413.115 364.921 413.026C375.621 412.938 383.587 405.738 383.498 395.038C383.41 384.338 374.932 222.116 374.755 200.716C374.654 188.468 370.743 181.365 363.266 177.313M363.266 177.313C357.679 174.285 350.102 172.96 340.636 172.464C340.636 172.464 253.03 175.59 177.026 178.236M177.026 178.236C160.212 178.821 143.965 179.383 129.36 179.882M129.36 179.882C123.062 180.097 117.07 180.301 111.469 180.49M247.425 223.172C249.482 213.208 255.621 203.063 266.865 201.61C279.601 199.964 289.805 210.056 292.008 222.803L247.425 223.172ZM266.665 177.535C272.096 177.232 276.902 180.95 277.439 186.363C278.023 192.244 272.734 197.334 266.828 197.151C261.653 196.992 257.459 193.467 256.946 188.316C256.384 182.675 261.005 177.85 266.665 177.535ZM216.712 283.171L217.796 306.347L330.108 300.958L329.032 278.674C328.057 277.944 327.177 277.707 324.566 277.819L216.712 283.171ZM108.061 192.224L110.891 210.927L124.2 202.791L135.858 210.72L137.611 207.139L137.508 194.656L135.702 191.995L124.163 198.333L110.736 192.202L108.061 192.224Z" stroke="#262A36" stroke-width="3"/>
<path d="M231.495 294.034H231.712" stroke="#262A36" stroke-width="3" stroke-linecap="round"/>
<path d="M240.793 293.818V293.601" stroke="#262A36" stroke-width="3" stroke-linecap="round"/>
<path d="M250.09 293.169H250.307" stroke="#262A36" stroke-width="3" stroke-linecap="round"/>
<path d="M261.766 292.304V292.52" stroke="#262A36" stroke-width="3" stroke-linecap="round"/>
<path d="M273.01 292.088C272.985 291.889 272.939 291.945 272.793 291.872" stroke="#262A36" stroke-width="3" stroke-linecap="round"/>
<path d="M282.307 291.44H282.091" stroke="#262A36" stroke-width="3" stroke-linecap="round"/>
<path d="M293.767 290.79C293.238 290.79 293.622 290.717 293.767 291.007" stroke="#262A36" stroke-width="3" stroke-linecap="round"/>
<path d="M301.334 291.007V290.791" stroke="#262A36" stroke-width="3" stroke-linecap="round"/>
<path d="M311.064 290.358C311.039 290.159 310.994 290.215 310.848 290.142" stroke="#262A36" stroke-width="3" stroke-linecap="round"/>
<path d="M319.929 290.142C319.69 290.112 319.507 289.73 319.713 290.142" stroke="#262A36" stroke-width="3" stroke-linecap="round"/>
<path d="M95.084 202.145C95.084 205.852 94.9082 209.601 95.084 213.303C95.147 214.628 95.3541 216.321 95.826 217.573C96.4377 219.196 96.5668 220.688 97.6672 222.036C99.1169 223.813 100.919 226.116 102.998 227.188C104.512 227.968 106.173 228.387 107.698 229.172C109.139 229.914 110.394 231.16 111.545 232.285C113.966 234.65 114.785 239.28 113.523 242.533C113.012 243.851 113.177 246.408 113.523 247.795C114.058 249.938 114.778 250.561 116.505 252.024C120.936 255.775 125.867 258.554 130.08 262.658C133.709 266.192 136.813 270.013 140.344 273.554" stroke="#ECA0B3" stroke-width="2" stroke-linecap="round"/>
<path d="M148.265 202.145C148.36 204.626 150.725 206.917 151.953 208.936C153.446 211.389 154.984 214.02 156.153 216.641C156.334 217.045 156.719 218.316 157.075 218.562C157.579 218.91 157.593 220.323 157.736 220.871C157.802 221.127 158.897 223.511 158.305 223.546C157.939 223.568 157.718 223.746 157.44 224.004C156.086 225.259 154.207 225.964 152.659 226.953C151.808 227.497 150.302 228.046 150.77 229.102C150.959 229.532 151.126 229.543 151.339 229.857C151.677 230.357 151.679 230.482 152.246 231.616C152.722 232.568 153.676 233.642 154.412 234.464C155.661 235.858 155.716 237.406 156.358 239.083C156.895 240.485 156.491 242.854 156.415 244.284C156.36 245.333 155.786 246.656 155.079 247.484C153.621 249.192 152.105 252.29 151.112 254.285M151.112 254.285C150.755 255.004 151.47 253.566 151.112 254.285ZM151.112 254.285C150.931 254.648 149.585 257.885 149.412 258.252M149.412 258.252C149.205 258.69 149.738 257.561 149.412 258.252ZM149.412 258.252C148.845 259.952 148.267 261.833 147.742 263.49C147.145 266.186 146.578 269.02 146.012 271.287" stroke="#ECA0B3" stroke-width="3" stroke-linecap="round"/>
<rect x="6.25" y="6.25" width="415.5" height="913.5" rx="73.75" stroke="black" stroke-width="12.5"/>
</svg>
