<svg width="428" height="937" viewBox="0 0 428 937" fill="none" xmlns="http://www.w3.org/2000/svg">
<g clip-path="url(#clip0_2312_7610)">
<rect width="428" height="937" fill="#F8FAFC"/>
<path d="M342.737 551.076C343.135 550.896 343.553 550.705 343.994 550.501C343.886 550.634 343.782 550.769 343.681 550.907L336.535 554.278C337.243 553.715 338.059 553.247 339.093 552.741C339.813 552.389 340.628 552.023 341.584 551.595C341.947 551.432 342.331 551.26 342.737 551.076Z" stroke="#64748B"/>
<path d="M371.393 605.212C375.271 607.209 379.29 608.455 383 608.291C381.878 608.823 380.978 609.256 380.239 609.612C379.989 609.732 379.757 609.843 379.542 609.946C378.006 610.683 377.311 611.002 376.592 611.234C372.007 612.717 366.632 611.336 361.388 608.468C356.366 605.723 351.549 601.658 347.813 597.648L356.468 593.565C360.482 597.92 365.854 602.361 371.393 605.212Z" stroke="#64748B"/>
<path d="M332.564 566.039C334.034 565.451 336.242 564.622 338.092 564.041C339.021 563.749 339.84 563.527 340.424 563.426C340.723 563.374 340.923 563.361 341.035 563.371C341.064 563.374 341.077 563.377 341.077 563.377C341.077 563.377 341.065 563.374 341.046 563.363C340.99 563.332 340.903 563.249 340.884 563.116L341.171 563.075C341.456 565.659 342.138 568.382 343.112 571.134C343.091 571.119 343.069 571.105 343.047 571.092C342.908 571.014 342.757 570.987 342.636 570.976C342.39 570.954 342.084 570.986 341.765 571.041C341.112 571.154 340.242 571.393 339.304 571.688C337.533 572.244 335.452 573.019 333.978 573.603C333.193 570.943 332.701 568.381 332.55 566.003L332.564 566.039ZM341.103 562.373C340.86 562.355 340.564 562.387 340.254 562.44C339.601 562.553 338.731 562.792 337.793 563.087C336.038 563.638 333.978 564.405 332.506 564.986C332.436 561.844 333.001 559.063 334.319 556.859L334.319 556.859L334.323 556.852C334.443 556.643 334.575 556.44 334.717 556.235L342.711 552.465C341.537 554.746 341.069 557.396 341.023 560.15L341.023 560.152C341.012 560.877 341.04 561.619 341.103 562.373ZM351.722 587.281C353.288 589.488 354.931 591.555 356.579 593.406L347.988 597.981C343.944 593.484 340.337 588.146 337.623 582.712C339.092 582.126 341.267 581.31 343.092 580.737C344.021 580.445 344.84 580.223 345.424 580.122C345.723 580.07 345.923 580.057 346.035 580.067C346.064 580.07 346.077 580.073 346.077 580.073C346.077 580.073 346.065 580.07 346.046 580.059C345.99 580.028 345.903 579.945 345.884 579.812L346.874 579.671C346.84 579.436 346.693 579.276 346.536 579.187C346.397 579.109 346.246 579.082 346.125 579.071C345.879 579.049 345.574 579.081 345.254 579.136C344.601 579.249 343.731 579.488 342.793 579.783C340.909 580.374 338.675 581.214 337.193 581.807L337.258 581.968C336.337 580.065 335.528 578.154 334.851 576.267C334.646 575.695 334.453 575.127 334.273 574.562C335.738 573.98 337.834 573.197 339.603 572.642C340.532 572.35 341.35 572.128 341.935 572.027C342.234 571.975 342.434 571.962 342.546 571.972C342.575 571.975 342.587 571.978 342.588 571.978C342.588 571.978 342.576 571.975 342.557 571.964C342.501 571.933 342.414 571.85 342.395 571.717L343.276 571.591C344.024 573.639 344.93 575.701 345.951 577.731C347.508 580.827 349.341 583.865 351.305 586.689C351.241 586.674 351.18 586.665 351.125 586.66C350.879 586.638 350.574 586.67 350.254 586.725C349.601 586.838 348.731 587.077 347.793 587.372C345.909 587.963 343.675 588.803 342.193 589.396L342.564 590.324C344.034 589.736 346.242 588.907 348.092 588.326C349.021 588.034 349.84 587.812 350.424 587.711C350.723 587.659 350.923 587.646 351.035 587.656C351.064 587.659 351.077 587.662 351.077 587.662C351.077 587.662 351.065 587.659 351.046 587.648C350.99 587.617 350.903 587.534 350.884 587.401L351.722 587.281Z" stroke="#64748B"/>
<path d="M343.58 569.799C341.333 562.37 341.486 555.797 344.352 551.685L344.356 551.682L344.728 551.347L344.658 551.27C347.589 547.483 352.643 546.586 358.677 548.408C364.872 550.278 371.975 554.994 378.479 562.149C384.981 569.302 389.624 577.499 391.88 584.956C394.144 592.441 393.972 599.058 391.04 603.169C388.149 607.225 382.984 608.224 376.783 606.352C370.587 604.482 363.485 599.766 356.98 592.61C350.478 585.458 345.835 577.258 343.58 569.799ZM358.221 590.503L358.221 590.503C363.641 596.456 369.614 600.442 374.909 602.04C380.198 603.636 384.939 602.87 387.632 599.096C390.286 595.379 390.332 589.582 388.441 583.334C386.542 577.059 382.654 570.201 377.239 564.245L377.239 564.245C371.819 558.292 365.846 554.306 360.551 552.708C355.261 551.112 350.521 551.878 347.827 555.652C345.174 559.369 345.128 565.166 347.018 571.413C348.918 577.689 352.805 584.546 358.221 590.503Z" stroke="#64748B"/>
<path d="M357.95 590.22L356.565 592.165C350.28 585.123 345.784 577.114 343.574 569.815C341.402 562.637 341.472 556.258 344.071 552.126L347.599 556.003C345.173 559.728 345.18 565.366 347.013 571.43C348.879 577.601 352.669 584.334 357.95 590.22Z" stroke="#64748B"/>
<path d="M351.878 602.003C355.486 600.679 362.738 598.258 362.878 599.166" stroke="#64748B"/>
<path d="M357.878 606.05C361.486 604.726 368.738 602.306 368.878 603.213" stroke="#64748B"/>
<path d="M364.878 610.098C368.486 608.774 375.738 606.353 375.878 607.261" stroke="#64748B"/>
<mask id="path-9-inside-1_2312_7610" fill="white">
<path d="M361.378 560.166L356 568.52L357.884 572.398L360.14 568.901C360.8 567.887 362.244 568.15 363.716 569.391L360.552 574.295L362.437 578.173L366.109 572.457C367.113 574.367 367.429 576.336 366.783 577.338L364.527 580.835L367.869 585.071L381.237 592.445L382.627 590.298L368.02 582.231L369.203 580.393C370.469 578.424 369.602 574.319 367.292 570.656L367.828 569.82L365.944 565.93L364.885 567.589C364.018 566.706 363.152 566.026 362.313 565.548L363.289 564.045L361.405 560.154"/>
</mask>
<path d="M356 568.52L355.159 567.978L354.855 568.451L355.101 568.957L356 568.52ZM357.884 572.398L356.985 572.835L357.761 574.433L358.725 572.94L357.884 572.398ZM360.14 568.901L359.302 568.356L359.299 568.359L360.14 568.901ZM363.716 569.391L364.556 569.933L365.033 569.193L364.36 568.626L363.716 569.391ZM360.552 574.295L359.712 573.753L359.407 574.226L359.653 574.732L360.552 574.295ZM362.437 578.173L361.537 578.61L362.315 580.212L363.278 578.714L362.437 578.173ZM366.109 572.457L366.994 571.992L366.195 570.473L365.267 571.917L366.109 572.457ZM366.783 577.338L367.623 577.88L367.623 577.88L366.783 577.338ZM364.527 580.835L363.687 580.292L363.299 580.893L363.742 581.454L364.527 580.835ZM367.869 585.071L367.084 585.69L367.209 585.849L367.386 585.946L367.869 585.071ZM381.237 592.445L380.754 593.321L381.571 593.771L382.077 592.989L381.237 592.445ZM382.627 590.298L383.466 590.841L384.048 589.94L383.11 589.422L382.627 590.298ZM368.02 582.231L367.18 581.689L366.601 582.589L367.537 583.106L368.02 582.231ZM369.203 580.393L370.044 580.934L370.045 580.934L369.203 580.393ZM367.292 570.656L366.45 570.115L366.106 570.651L366.446 571.189L367.292 570.656ZM367.828 569.82L368.669 570.361L368.972 569.889L368.728 569.384L367.828 569.82ZM365.944 565.93L366.844 565.494L366.064 563.884L365.101 565.392L365.944 565.93ZM364.885 567.589L364.171 568.289L365.051 569.186L365.728 568.127L364.885 567.589ZM362.313 565.548L361.474 565.004L360.897 565.893L361.818 566.417L362.313 565.548ZM363.289 564.045L364.128 564.589L364.435 564.116L364.189 563.609L363.289 564.045ZM360.537 559.625L355.159 567.978L356.841 569.061L362.218 560.708L360.537 559.625ZM355.101 568.957L356.985 572.835L358.784 571.961L356.899 568.083L355.101 568.957ZM358.725 572.94L360.98 569.444L359.299 568.359L357.044 571.856L358.725 572.94ZM360.978 569.447C361.054 569.33 361.156 569.241 361.475 569.289C361.852 569.346 362.413 569.6 363.071 570.155L364.36 568.626C363.546 567.94 362.65 567.443 361.772 567.311C360.836 567.171 359.886 567.459 359.302 568.356L360.978 569.447ZM362.875 568.849L359.712 573.753L361.393 574.837L364.556 569.933L362.875 568.849ZM359.653 574.732L361.537 578.61L363.336 577.736L361.452 573.858L359.653 574.732ZM363.278 578.714L366.95 572.998L365.267 571.917L361.595 577.633L363.278 578.714ZM365.224 572.923C365.684 573.798 365.97 574.658 366.075 575.381C366.184 576.135 366.075 576.59 365.942 576.796L367.623 577.88C368.136 577.084 368.193 576.053 368.054 575.095C367.911 574.105 367.538 573.027 366.994 571.992L365.224 572.923ZM365.942 576.796L363.687 580.292L365.367 581.377L367.623 577.88L365.942 576.796ZM363.742 581.454L367.084 585.69L368.654 584.451L365.312 580.215L363.742 581.454ZM367.386 585.946L380.754 593.321L381.72 591.57L368.352 584.195L367.386 585.946ZM382.077 592.989L383.466 590.841L381.787 589.754L380.398 591.902L382.077 592.989ZM383.11 589.422L368.504 581.355L367.537 583.106L382.143 591.173L383.11 589.422ZM368.861 582.772L370.044 580.934L368.362 579.852L367.18 581.689L368.861 582.772ZM370.045 580.934C370.887 579.623 370.935 577.785 370.569 575.963C370.194 574.096 369.348 572.041 368.137 570.122L366.446 571.189C367.546 572.933 368.288 574.762 368.608 576.357C368.937 577.995 368.785 579.194 368.362 579.852L370.045 580.934ZM368.133 571.196L368.669 570.361L366.986 569.28L366.45 570.115L368.133 571.196ZM368.728 569.384L366.844 565.494L365.044 566.366L366.928 570.256L368.728 569.384ZM365.101 565.392L364.042 567.051L365.728 568.127L366.787 566.468L365.101 565.392ZM365.598 566.888C364.68 565.953 363.742 565.211 362.807 564.679L361.818 566.417C362.562 566.84 363.356 567.459 364.171 568.289L365.598 566.888ZM363.151 566.093L364.128 564.589L362.451 563.5L361.474 565.004L363.151 566.093ZM364.189 563.609L362.305 559.719L360.505 560.59L362.389 564.481L364.189 563.609Z" fill="#64748B" mask="url(#path-9-inside-1_2312_7610)"/>
<path d="M23.7368 496.076C24.1349 495.896 24.5533 495.705 24.9939 495.501C24.8863 495.634 24.782 495.769 24.6812 495.907L17.5346 499.278C18.2431 498.715 19.0594 498.247 20.0927 497.741C20.8129 497.389 21.6283 497.023 22.5836 496.595C22.9469 496.432 23.3305 496.26 23.7368 496.076Z" stroke="#64748B"/>
<path d="M52.3925 550.212C56.2711 552.209 60.29 553.455 63.9998 553.291C62.8783 553.823 61.978 554.256 61.2386 554.612C60.9888 554.732 60.7574 554.843 60.542 554.946C59.0055 555.683 58.311 556.002 57.5924 556.234C53.0074 557.717 47.6323 556.336 42.388 553.468C37.3663 550.723 32.5486 546.658 28.8127 542.648L37.4679 538.565C41.482 542.92 46.8535 547.361 52.3925 550.212Z" stroke="#64748B"/>
<path d="M13.5643 511.039C15.034 510.451 17.2423 509.622 19.0921 509.041C20.0207 508.749 20.8395 508.527 21.4241 508.426C21.7227 508.374 21.923 508.361 22.035 508.371C22.0644 508.374 22.0766 508.377 22.0766 508.377C22.0766 508.377 22.0648 508.374 22.0461 508.363C21.9897 508.332 21.9026 508.249 21.8836 508.116L22.1706 508.075C22.4563 510.659 23.1382 513.382 24.1119 516.134C24.0906 516.119 24.0688 516.105 24.0468 516.092C23.9079 516.014 23.7565 515.987 23.6357 515.976C23.3896 515.954 23.0845 515.986 22.7646 516.041C22.1121 516.154 21.2416 516.393 20.3035 516.688C18.533 517.244 16.4525 518.019 14.9781 518.603C14.1926 515.943 13.7009 513.381 13.5498 511.003L13.5643 511.039ZM22.1025 507.373C21.8604 507.355 21.564 507.387 21.2536 507.44C20.6011 507.553 19.7306 507.792 18.7926 508.087C17.0375 508.638 14.9778 509.405 13.5059 509.986C13.4357 506.844 14.0013 504.063 15.3187 501.859L15.3188 501.859L15.3227 501.852C15.4435 501.643 15.5746 501.44 15.7172 501.235L23.7108 497.465C22.5372 499.746 22.0686 502.396 22.0227 505.15L22.0227 505.152C22.0123 505.877 22.0398 506.619 22.1025 507.373ZM32.7216 532.281C34.2881 534.488 35.9307 536.555 37.5792 538.406L28.9878 542.981C24.9442 538.484 21.3369 533.146 18.623 527.712C20.0924 527.126 22.2668 526.31 24.0921 525.737C25.0207 525.445 25.8395 525.223 26.4241 525.122C26.7227 525.07 26.923 525.057 27.035 525.067C27.0644 525.07 27.0766 525.073 27.0766 525.073C27.0766 525.073 27.0648 525.07 27.0461 525.059C26.9897 525.028 26.9026 524.945 26.8836 524.812L27.8736 524.671C27.8402 524.436 27.6932 524.276 27.5358 524.187C27.397 524.109 27.2456 524.082 27.1248 524.071C26.8787 524.049 26.5735 524.081 26.2536 524.136C25.6011 524.249 24.7306 524.488 23.7926 524.783C21.9092 525.374 19.6751 526.214 18.1929 526.807L18.2576 526.968C17.337 525.065 16.5283 523.154 15.8511 521.267C15.6458 520.695 15.4528 520.127 15.2726 519.562C16.7379 518.98 18.8343 518.197 20.6031 517.642C21.5317 517.35 22.3505 517.128 22.935 517.027C23.2336 516.975 23.434 516.962 23.5459 516.972C23.5753 516.975 23.5875 516.978 23.5875 516.978C23.5875 516.978 23.5758 516.975 23.557 516.964C23.5006 516.933 23.4135 516.85 23.3945 516.717L24.2764 516.591C25.024 518.639 25.9297 520.701 26.9507 522.731C28.5082 525.827 30.3405 528.865 32.3049 531.689C32.2412 531.674 32.1798 531.665 32.1248 531.66C31.8787 531.638 31.5735 531.67 31.2536 531.725C30.6011 531.838 29.7306 532.077 28.7926 532.372C26.9092 532.963 24.6751 533.803 23.1929 534.396L23.5642 535.324C25.034 534.736 27.2423 533.907 29.0921 533.326C30.0207 533.034 30.8395 532.812 31.4241 532.711C31.7227 532.659 31.923 532.646 32.035 532.656C32.0644 532.659 32.0766 532.662 32.0766 532.662C32.0766 532.662 32.0648 532.659 32.0461 532.648C31.9897 532.617 31.9026 532.534 31.8836 532.401L32.7216 532.281Z" stroke="#64748B"/>
<path d="M24.5796 514.799C22.3326 507.37 22.4858 500.797 25.3523 496.685L25.356 496.682L25.7275 496.347L25.6575 496.27C28.5891 492.483 33.6429 491.586 39.6766 493.408C45.8723 495.278 52.9748 499.994 59.4795 507.149C65.9814 514.302 70.6242 522.499 72.8801 529.956C75.1444 537.441 74.9715 544.058 72.0404 548.169C69.1493 552.225 63.9837 553.224 57.7831 551.352C51.5874 549.482 44.4849 544.766 37.9802 537.61C31.4783 530.458 26.8355 522.258 24.5796 514.799ZM39.2208 535.503L39.221 535.503C44.6406 541.456 50.6141 545.442 55.9091 547.04C61.1984 548.636 65.9391 547.87 68.6322 544.096C71.2855 540.379 71.3321 534.582 69.4413 528.334C67.5421 522.059 63.6545 515.201 58.2389 509.245L58.2387 509.245C52.8191 503.292 46.8456 499.306 41.5506 497.708C36.2613 496.112 31.5206 496.878 28.8275 500.652C26.1742 504.369 26.1276 510.166 28.0183 516.413C29.9176 522.689 33.8052 529.546 39.2208 535.503Z" stroke="#64748B"/>
<path d="M38.9505 535.22L37.5647 537.165C31.2802 530.123 26.7837 522.114 24.5745 514.815C22.4016 507.637 22.4715 501.258 25.0705 497.126L28.599 501.003C26.1731 504.728 26.18 510.366 28.0132 516.43C29.8791 522.601 33.6691 529.334 38.9505 535.22Z" stroke="#64748B"/>
<path d="M32.8784 547.003C36.4864 545.679 43.7376 543.258 43.8784 544.166" stroke="#64748B"/>
<path d="M38.8784 551.05C42.4864 549.726 49.7376 547.306 49.8784 548.213" stroke="#64748B"/>
<path d="M45.8784 555.098C49.4864 553.774 56.7376 551.353 56.8784 552.261" stroke="#64748B"/>
<mask id="path-19-inside-2_2312_7610" fill="white">
<path d="M42.3776 505.166L37 513.52L38.8842 517.398L41.1398 513.901C41.7999 512.887 43.244 513.15 44.7156 514.391L41.5524 519.295L43.4366 523.173L47.1087 517.457C48.1127 519.367 48.4291 521.336 47.7826 522.338L45.5271 525.835L48.8692 530.071L62.2375 537.445L63.6265 535.298L49.0204 527.231L50.2033 525.393C51.4686 523.424 50.6021 519.319 48.2915 515.656L48.8279 514.82L46.9437 510.93L45.8847 512.589C45.0182 511.706 44.1518 511.026 43.3128 510.548L44.2893 509.045L42.4051 505.154"/>
</mask>
<path d="M37 513.52L36.1592 512.978L35.8549 513.451L36.1005 513.957L37 513.52ZM38.8842 517.398L37.9847 517.835L38.7613 519.433L39.7245 517.94L38.8842 517.398ZM41.1398 513.901L40.3017 513.356L40.2995 513.359L41.1398 513.901ZM44.7156 514.391L45.556 514.933L46.0328 514.193L45.3603 513.626L44.7156 514.391ZM41.5524 519.295L40.712 518.753L40.407 519.226L40.6529 519.732L41.5524 519.295ZM43.4366 523.173L42.5371 523.61L43.3153 525.212L44.2779 523.714L43.4366 523.173ZM47.1087 517.457L47.9938 516.992L47.1951 515.473L46.2674 516.917L47.1087 517.457ZM47.7826 522.338L48.623 522.88L48.6231 522.88L47.7826 522.338ZM45.5271 525.835L44.6868 525.292L44.2994 525.893L44.742 526.454L45.5271 525.835ZM48.8692 530.071L48.0841 530.69L48.2092 530.849L48.3861 530.946L48.8692 530.071ZM62.2375 537.445L61.7544 538.321L62.5708 538.771L63.0772 537.989L62.2375 537.445ZM63.6265 535.298L64.4662 535.841L65.0483 534.94L64.11 534.422L63.6265 535.298ZM49.0204 527.231L48.1796 526.689L47.6006 527.589L48.537 528.106L49.0204 527.231ZM50.2033 525.393L51.0441 525.934L51.0445 525.934L50.2033 525.393ZM48.2915 515.656L47.4501 515.115L47.1062 515.651L47.4457 516.189L48.2915 515.656ZM48.8279 514.82L49.6694 515.361L49.9723 514.889L49.7279 514.384L48.8279 514.82ZM46.9437 510.93L47.8437 510.494L47.0637 508.884L46.1009 510.392L46.9437 510.93ZM45.8847 512.589L45.1709 513.289L46.0512 514.186L46.7275 513.127L45.8847 512.589ZM43.3128 510.548L42.4741 510.004L41.8965 510.893L42.8183 511.417L43.3128 510.548ZM44.2893 509.045L45.1279 509.589L45.4351 509.116L45.1893 508.609L44.2893 509.045ZM41.5367 504.625L36.1592 512.978L37.8408 514.061L43.2184 505.708L41.5367 504.625ZM36.1005 513.957L37.9847 517.835L39.7837 516.961L37.8995 513.083L36.1005 513.957ZM39.7245 517.94L41.9801 514.444L40.2995 513.359L38.0439 516.856L39.7245 517.94ZM41.9779 514.447C42.0541 514.33 42.1563 514.241 42.4753 514.289C42.852 514.346 43.4132 514.6 44.0709 515.155L45.3603 513.626C44.5465 512.94 43.6498 512.443 42.7715 512.311C41.8356 512.171 40.8856 512.459 40.3017 513.356L41.9779 514.447ZM43.8753 513.849L40.712 518.753L42.3927 519.837L45.556 514.933L43.8753 513.849ZM40.6529 519.732L42.5371 523.61L44.336 522.736L42.4518 518.858L40.6529 519.732ZM44.2779 523.714L47.9501 517.998L46.2674 516.917L42.5952 522.633L44.2779 523.714ZM46.2237 517.923C46.6836 518.798 46.9704 519.658 47.0749 520.381C47.1839 521.135 47.0753 521.59 46.9422 521.796L48.6231 522.88C49.1364 522.084 49.1928 521.053 49.0543 520.095C48.9112 519.105 48.5379 518.027 47.9938 516.992L46.2237 517.923ZM46.9423 521.796L44.6868 525.292L46.3674 526.377L48.623 522.88L46.9423 521.796ZM44.742 526.454L48.0841 530.69L49.6543 529.451L46.3122 525.215L44.742 526.454ZM48.3861 530.946L61.7544 538.321L62.7205 536.57L49.3522 529.195L48.3861 530.946ZM63.0772 537.989L64.4662 535.841L62.7868 534.754L61.3977 536.902L63.0772 537.989ZM64.11 534.422L49.5039 526.355L48.537 528.106L63.1431 536.173L64.11 534.422ZM49.8613 527.772L51.0441 525.934L49.3624 524.852L48.1796 526.689L49.8613 527.772ZM51.0445 525.934C51.887 524.623 51.9345 522.785 51.5688 520.963C51.1942 519.096 50.3478 517.041 49.1373 515.122L47.4457 516.189C48.5458 517.933 49.288 519.762 49.6079 521.357C49.9367 522.995 49.7848 524.194 49.362 524.852L51.0445 525.934ZM49.133 516.196L49.6694 515.361L47.9865 514.28L47.4501 515.115L49.133 516.196ZM49.7279 514.384L47.8437 510.494L46.0437 511.366L47.9279 515.256L49.7279 514.384ZM46.1009 510.392L45.0418 512.051L46.7275 513.127L47.7866 511.468L46.1009 510.392ZM46.5985 511.888C45.6802 510.953 44.7417 510.211 43.8073 509.679L42.8183 511.417C43.5618 511.84 44.3562 512.459 45.1709 513.289L46.5985 511.888ZM44.1515 511.093L45.1279 509.589L43.4506 508.5L42.4741 510.004L44.1515 511.093ZM45.1893 508.609L43.3051 504.719L41.5051 505.59L43.3893 509.481L45.1893 508.609Z" fill="#64748B" mask="url(#path-19-inside-2_2312_7610)"/>
<path d="M41.648 641L33.008 605.96H41.12L47.888 635.72L46.208 634.616H50.576L48.704 635.72L53.936 607.256H60.464L53.6 641H41.648ZM62.528 641L55.136 607.256H62L68.048 635.72L66.224 634.616H70.4L68.816 635.72L74.72 605.96H82.4L74.72 641H62.528ZM95.7883 641.912C93.5483 641.912 91.5643 641.528 89.8363 640.76C88.1403 639.992 86.7163 638.968 85.5643 637.688C84.4443 636.376 83.5803 634.92 82.9723 633.32C82.3963 631.688 82.1083 630.024 82.1083 628.328V627.368C82.1083 625.608 82.3963 623.928 82.9723 622.328C83.5803 620.696 84.4443 619.24 85.5643 617.96C86.6843 616.68 88.0763 615.672 89.7403 614.936C91.4363 614.168 93.3563 613.784 95.5003 613.784C98.3163 613.784 100.684 614.424 102.604 615.704C104.556 616.952 106.044 618.6 107.068 620.648C108.092 622.664 108.604 624.872 108.604 627.272V629.864H85.3243V625.496H103.948L101.452 627.512C101.452 625.944 101.228 624.6 100.78 623.48C100.332 622.36 99.6603 621.512 98.7643 620.936C97.9003 620.328 96.8123 620.024 95.5003 620.024C94.1563 620.024 93.0203 620.328 92.0923 620.936C91.1643 621.544 90.4603 622.44 89.9803 623.624C89.5003 624.776 89.2603 626.2 89.2603 627.896C89.2603 629.464 89.4843 630.84 89.9323 632.024C90.3803 633.176 91.0843 634.072 92.0443 634.712C93.0043 635.352 94.2523 635.672 95.7883 635.672C97.1963 635.672 98.3483 635.4 99.2443 634.856C100.14 634.312 100.748 633.64 101.068 632.84H108.124C107.74 634.6 106.988 636.168 105.868 637.544C104.748 638.92 103.34 639.992 101.644 640.76C99.9483 641.528 97.9963 641.912 95.7883 641.912ZM112.109 641V605.96H119.837V641H112.109ZM108.989 611.624V605.96H119.837V611.624H108.989ZM136.802 641.912C134.53 641.912 132.546 641.544 130.85 640.808C129.186 640.04 127.794 639.016 126.674 637.736C125.554 636.456 124.722 635.016 124.178 633.416C123.634 631.784 123.362 630.104 123.362 628.376V627.464C123.362 625.672 123.65 623.96 124.226 622.328C124.802 620.664 125.65 619.192 126.77 617.912C127.89 616.632 129.282 615.624 130.946 614.888C132.642 614.152 134.578 613.784 136.754 613.784C139.122 613.784 141.218 614.248 143.042 615.176C144.866 616.072 146.322 617.336 147.41 618.968C148.498 620.6 149.106 622.472 149.234 624.584H141.698C141.57 623.4 141.09 622.408 140.258 621.608C139.458 620.776 138.29 620.36 136.754 620.36C135.474 620.36 134.402 620.68 133.538 621.32C132.706 621.96 132.082 622.84 131.666 623.96C131.25 625.08 131.042 626.408 131.042 627.944C131.042 629.352 131.234 630.632 131.618 631.784C132.002 632.904 132.61 633.784 133.442 634.424C134.306 635.032 135.426 635.336 136.802 635.336C137.826 635.336 138.69 635.16 139.394 634.808C140.13 634.424 140.706 633.912 141.122 633.272C141.57 632.6 141.842 631.832 141.938 630.968H149.426C149.33 633.144 148.722 635.064 147.602 636.728C146.482 638.36 144.994 639.64 143.138 640.568C141.282 641.464 139.17 641.912 136.802 641.912ZM165.234 641.912C162.93 641.912 160.882 641.56 159.09 640.856C157.298 640.12 155.778 639.128 154.53 637.88C153.314 636.632 152.386 635.208 151.746 633.608C151.106 631.976 150.786 630.264 150.786 628.472V627.368C150.786 625.544 151.106 623.816 151.746 622.184C152.418 620.52 153.378 619.064 154.626 617.816C155.906 616.568 157.442 615.592 159.234 614.888C161.026 614.152 163.026 613.784 165.234 613.784C167.506 613.784 169.522 614.152 171.282 614.888C173.074 615.592 174.594 616.568 175.842 617.816C177.09 619.064 178.05 620.52 178.722 622.184C179.394 623.816 179.73 625.544 179.73 627.368V628.472C179.73 630.264 179.41 631.976 178.77 633.608C178.13 635.208 177.186 636.632 175.938 637.88C174.722 639.128 173.218 640.12 171.426 640.856C169.634 641.56 167.57 641.912 165.234 641.912ZM165.234 635.432C166.738 635.432 167.986 635.112 168.978 634.472C169.97 633.832 170.722 632.936 171.234 631.784C171.778 630.632 172.05 629.352 172.05 627.944C172.05 626.44 171.778 625.128 171.234 624.008C170.69 622.856 169.906 621.944 168.882 621.272C167.89 620.6 166.674 620.264 165.234 620.264C163.826 620.264 162.61 620.6 161.586 621.272C160.562 621.944 159.778 622.856 159.234 624.008C158.722 625.128 158.466 626.44 158.466 627.944C158.466 629.352 158.722 630.632 159.234 631.784C159.746 632.936 160.514 633.832 161.538 634.472C162.562 635.112 163.794 635.432 165.234 635.432ZM183.17 641V614.696H189.266V626.024H188.834C188.834 623.336 189.17 621.096 189.842 619.304C190.514 617.512 191.522 616.168 192.866 615.272C194.21 614.344 195.858 613.88 197.81 613.88H198.146C200.13 613.88 201.778 614.344 203.09 615.272C204.434 616.168 205.442 617.512 206.114 619.304C206.818 621.096 207.17 623.336 207.17 626.024H205.298C205.298 623.336 205.634 621.096 206.306 619.304C207.01 617.512 208.034 616.168 209.378 615.272C210.722 614.344 212.37 613.88 214.322 613.88H214.658C216.642 613.88 218.306 614.344 219.65 615.272C221.026 616.168 222.066 617.512 222.77 619.304C223.474 621.096 223.826 623.336 223.826 626.024V641H216.146V625.592C216.146 624.152 215.762 622.984 214.994 622.088C214.258 621.192 213.202 620.744 211.826 620.744C210.45 620.744 209.362 621.208 208.562 622.136C207.762 623.032 207.362 624.232 207.362 625.736V641H199.634V625.592C199.634 624.152 199.25 622.984 198.482 622.088C197.746 621.192 196.706 620.744 195.362 620.744C193.954 620.744 192.85 621.208 192.05 622.136C191.25 623.032 190.85 624.232 190.85 625.736V641H183.17ZM240.501 641.912C238.261 641.912 236.277 641.528 234.549 640.76C232.853 639.992 231.429 638.968 230.277 637.688C229.157 636.376 228.293 634.92 227.685 633.32C227.109 631.688 226.821 630.024 226.821 628.328V627.368C226.821 625.608 227.109 623.928 227.685 622.328C228.293 620.696 229.157 619.24 230.277 617.96C231.397 616.68 232.789 615.672 234.453 614.936C236.149 614.168 238.069 613.784 240.213 613.784C243.029 613.784 245.397 614.424 247.317 615.704C249.269 616.952 250.757 618.6 251.781 620.648C252.805 622.664 253.317 624.872 253.317 627.272V629.864H230.037V625.496H248.661L246.165 627.512C246.165 625.944 245.941 624.6 245.493 623.48C245.045 622.36 244.373 621.512 243.477 620.936C242.613 620.328 241.525 620.024 240.213 620.024C238.869 620.024 237.733 620.328 236.805 620.936C235.877 621.544 235.173 622.44 234.693 623.624C234.213 624.776 233.973 626.2 233.973 627.896C233.973 629.464 234.197 630.84 234.645 632.024C235.093 633.176 235.797 634.072 236.757 634.712C237.717 635.352 238.965 635.672 240.501 635.672C241.909 635.672 243.061 635.4 243.957 634.856C244.853 634.312 245.461 633.64 245.781 632.84H252.837C252.453 634.6 251.701 636.168 250.581 637.544C249.461 638.92 248.053 639.992 246.357 640.76C244.661 641.528 242.709 641.912 240.501 641.912ZM276.596 641.336C273.94 641.336 271.796 641.016 270.164 640.376C268.532 639.704 267.332 638.6 266.564 637.064C265.828 635.496 265.46 633.384 265.46 630.728V607.592H272.612V631.016C272.612 632.264 272.932 633.224 273.572 633.896C274.244 634.536 275.188 634.856 276.404 634.856H280.292V641.336H276.596ZM261.476 620.312V614.696H280.292V620.312H261.476ZM296.259 641.912C293.955 641.912 291.907 641.56 290.115 640.856C288.323 640.12 286.803 639.128 285.555 637.88C284.339 636.632 283.411 635.208 282.771 633.608C282.131 631.976 281.811 630.264 281.811 628.472V627.368C281.811 625.544 282.131 623.816 282.771 622.184C283.443 620.52 284.403 619.064 285.651 617.816C286.931 616.568 288.467 615.592 290.259 614.888C292.051 614.152 294.051 613.784 296.259 613.784C298.531 613.784 300.547 614.152 302.307 614.888C304.099 615.592 305.619 616.568 306.867 617.816C308.115 619.064 309.075 620.52 309.747 622.184C310.419 623.816 310.755 625.544 310.755 627.368V628.472C310.755 630.264 310.435 631.976 309.795 633.608C309.155 635.208 308.211 636.632 306.963 637.88C305.747 639.128 304.243 640.12 302.451 640.856C300.659 641.56 298.595 641.912 296.259 641.912ZM296.259 635.432C297.763 635.432 299.011 635.112 300.003 634.472C300.995 633.832 301.747 632.936 302.259 631.784C302.803 630.632 303.075 629.352 303.075 627.944C303.075 626.44 302.803 625.128 302.259 624.008C301.715 622.856 300.931 621.944 299.907 621.272C298.915 620.6 297.699 620.264 296.259 620.264C294.851 620.264 293.635 620.6 292.611 621.272C291.587 621.944 290.803 622.856 290.259 624.008C289.747 625.128 289.491 626.44 289.491 627.944C289.491 629.352 289.747 630.632 290.259 631.784C290.771 632.936 291.539 633.832 292.563 634.472C293.587 635.112 294.819 635.432 296.259 635.432ZM48.128 697.912C44.96 697.912 42.288 697.416 40.112 696.424C37.936 695.4 36.288 694.024 35.168 692.296C34.048 690.536 33.488 688.52 33.488 686.248H41.12C41.12 687.144 41.36 687.976 41.84 688.744C42.352 689.512 43.12 690.136 44.144 690.616C45.168 691.064 46.496 691.288 48.128 691.288C49.6 691.288 50.832 691.096 51.824 690.712C52.816 690.328 53.568 689.8 54.08 689.128C54.592 688.424 54.848 687.624 54.848 686.728C54.848 685.608 54.368 684.728 53.408 684.088C52.448 683.416 50.896 682.984 48.752 682.792L46.112 682.552C42.624 682.264 39.84 681.176 37.76 679.288C35.68 677.4 34.64 674.904 34.64 671.8C34.64 669.56 35.168 667.624 36.224 665.992C37.312 664.36 38.816 663.112 40.736 662.248C42.656 661.352 44.928 660.904 47.552 660.904C50.304 660.904 52.656 661.384 54.608 662.344C56.592 663.272 58.112 664.6 59.168 666.328C60.224 668.024 60.752 670.024 60.752 672.328H53.072C53.072 671.464 52.864 670.68 52.448 669.976C52.032 669.24 51.408 668.648 50.576 668.2C49.776 667.752 48.768 667.528 47.552 667.528C46.4 667.528 45.424 667.72 44.624 668.104C43.856 668.488 43.28 669.016 42.896 669.688C42.512 670.328 42.32 671.032 42.32 671.8C42.32 672.792 42.672 673.656 43.376 674.392C44.08 675.128 45.232 675.56 46.832 675.688L49.52 675.928C52.08 676.152 54.336 676.712 56.288 677.608C58.24 678.472 59.76 679.672 60.848 681.208C61.968 682.712 62.528 684.552 62.528 686.728C62.528 688.968 61.936 690.936 60.752 692.632C59.6 694.296 57.952 695.592 55.808 696.52C53.664 697.448 51.104 697.912 48.128 697.912ZM75.2476 697L80.0476 671.56H88.4476L94.0156 697H88.0636L82.3516 671.752H85.7596L80.6236 697H75.2476ZM73.4236 697L73.3756 690.616H78.6556L78.7036 697H73.4236ZM69.9676 697L62.9116 670.696H70.4476L77.0236 697H69.9676ZM90.0316 697L90.0796 690.616H95.3596V697H90.0316ZM92.1916 697L98.0476 670.696H105.104L98.7676 697H92.1916ZM109.178 697V670.696H116.858V697H109.178ZM105.674 676.36V670.696H116.858V676.36H105.674ZM112.154 668.104C110.714 668.104 109.642 667.736 108.938 667C108.266 666.232 107.93 665.272 107.93 664.12C107.93 662.936 108.266 661.976 108.938 661.24C109.642 660.472 110.714 660.088 112.154 660.088C113.594 660.088 114.65 660.472 115.322 661.24C116.026 661.976 116.378 662.936 116.378 664.12C116.378 665.272 116.026 666.232 115.322 667C114.65 667.736 113.594 668.104 112.154 668.104ZM122.617 697V670.456C122.617 667.416 123.481 665.16 125.209 663.688C126.937 662.216 129.481 661.48 132.841 661.48H136.201V667.24H132.505C131.641 667.24 130.969 667.48 130.489 667.96C130.009 668.44 129.769 669.112 129.769 669.976V697H122.617ZM119.497 676.84V671.224H136.585V676.84H119.497ZM150.917 697.336C148.261 697.336 146.117 697.016 144.485 696.376C142.853 695.704 141.653 694.6 140.885 693.064C140.149 691.496 139.781 689.384 139.781 686.728V663.592H146.933V687.016C146.933 688.264 147.253 689.224 147.893 689.896C148.565 690.536 149.509 690.856 150.725 690.856H154.613V697.336H150.917ZM135.797 676.312V670.696H154.613V676.312H135.797ZM166.015 697V670.696H172.111V682.024H171.679C171.679 679.336 172.015 677.096 172.687 675.304C173.359 673.512 174.367 672.168 175.711 671.272C177.055 670.344 178.703 669.88 180.655 669.88H180.991C182.975 669.88 184.623 670.344 185.935 671.272C187.279 672.168 188.287 673.512 188.959 675.304C189.663 677.096 190.015 679.336 190.015 682.024H188.143C188.143 679.336 188.479 677.096 189.151 675.304C189.855 673.512 190.879 672.168 192.223 671.272C193.567 670.344 195.215 669.88 197.167 669.88H197.503C199.487 669.88 201.151 670.344 202.495 671.272C203.871 672.168 204.911 673.512 205.615 675.304C206.319 677.096 206.671 679.336 206.671 682.024V697H198.991V681.592C198.991 680.152 198.607 678.984 197.839 678.088C197.103 677.192 196.047 676.744 194.671 676.744C193.295 676.744 192.207 677.208 191.407 678.136C190.607 679.032 190.207 680.232 190.207 681.736V697H182.479V681.592C182.479 680.152 182.095 678.984 181.327 678.088C180.591 677.192 179.551 676.744 178.207 676.744C176.799 676.744 175.695 677.208 174.895 678.136C174.095 679.032 173.695 680.232 173.695 681.736V697H166.015ZM224.114 697.912C221.81 697.912 219.762 697.56 217.97 696.856C216.178 696.12 214.658 695.128 213.41 693.88C212.194 692.632 211.266 691.208 210.626 689.608C209.986 687.976 209.666 686.264 209.666 684.472V683.368C209.666 681.544 209.986 679.816 210.626 678.184C211.298 676.52 212.258 675.064 213.506 673.816C214.786 672.568 216.322 671.592 218.114 670.888C219.906 670.152 221.906 669.784 224.114 669.784C226.386 669.784 228.402 670.152 230.162 670.888C231.954 671.592 233.474 672.568 234.722 673.816C235.97 675.064 236.93 676.52 237.602 678.184C238.274 679.816 238.61 681.544 238.61 683.368V684.472C238.61 686.264 238.29 687.976 237.65 689.608C237.01 691.208 236.066 692.632 234.818 693.88C233.602 695.128 232.098 696.12 230.306 696.856C228.514 697.56 226.45 697.912 224.114 697.912ZM224.114 691.432C225.618 691.432 226.866 691.112 227.858 690.472C228.85 689.832 229.602 688.936 230.114 687.784C230.658 686.632 230.93 685.352 230.93 683.944C230.93 682.44 230.658 681.128 230.114 680.008C229.57 678.856 228.786 677.944 227.762 677.272C226.77 676.6 225.554 676.264 224.114 676.264C222.706 676.264 221.49 676.6 220.466 677.272C219.442 677.944 218.658 678.856 218.114 680.008C217.602 681.128 217.346 682.44 217.346 683.944C217.346 685.352 217.602 686.632 218.114 687.784C218.626 688.936 219.394 689.832 220.418 690.472C221.442 691.112 222.674 691.432 224.114 691.432ZM242.05 697V670.696H248.146V681.976H247.714C247.714 679.288 248.05 677.048 248.722 675.256C249.426 673.464 250.482 672.12 251.89 671.224C253.298 670.328 255.01 669.88 257.026 669.88H257.362C260.434 669.88 262.77 670.888 264.37 672.904C266.002 674.888 266.818 677.912 266.818 681.976V697H259.138V681.544C259.138 680.136 258.722 678.984 257.89 678.088C257.058 677.192 255.938 676.744 254.53 676.744C253.09 676.744 251.922 677.208 251.026 678.136C250.162 679.032 249.73 680.216 249.73 681.688V697H242.05ZM283.491 697.912C281.251 697.912 279.267 697.528 277.539 696.76C275.843 695.992 274.419 694.968 273.267 693.688C272.147 692.376 271.283 690.92 270.675 689.32C270.099 687.688 269.811 686.024 269.811 684.328V683.368C269.811 681.608 270.099 679.928 270.675 678.328C271.283 676.696 272.147 675.24 273.267 673.96C274.387 672.68 275.779 671.672 277.443 670.936C279.139 670.168 281.059 669.784 283.203 669.784C286.019 669.784 288.387 670.424 290.307 671.704C292.259 672.952 293.747 674.6 294.771 676.648C295.795 678.664 296.307 680.872 296.307 683.272V685.864H273.027V681.496H291.651L289.155 683.512C289.155 681.944 288.931 680.6 288.483 679.48C288.035 678.36 287.363 677.512 286.467 676.936C285.603 676.328 284.515 676.024 283.203 676.024C281.859 676.024 280.723 676.328 279.795 676.936C278.867 677.544 278.163 678.44 277.683 679.624C277.203 680.776 276.963 682.2 276.963 683.896C276.963 685.464 277.187 686.84 277.635 688.024C278.083 689.176 278.787 690.072 279.747 690.712C280.707 691.352 281.955 691.672 283.491 691.672C284.899 691.672 286.051 691.4 286.947 690.856C287.843 690.312 288.451 689.64 288.771 688.84H295.827C295.443 690.6 294.691 692.168 293.571 693.544C292.451 694.92 291.043 695.992 289.347 696.76C287.651 697.528 285.699 697.912 283.491 697.912ZM298.907 707.416V700.888H304.379C305.211 700.888 305.915 700.776 306.491 700.552C307.067 700.36 307.531 700.024 307.883 699.544C308.235 699.064 308.523 698.408 308.747 697.576L315.227 670.696H322.523L315.179 699.112C314.667 701.16 313.947 702.792 313.019 704.008C312.123 705.224 310.907 706.088 309.371 706.6C307.867 707.144 305.947 707.416 303.611 707.416H298.907ZM307.163 696.424V690.424H312.731V696.424H307.163ZM303.995 696.424L295.931 670.696H303.659L311.291 696.424H303.995Z" fill="#262A36"/>
<path d="M33.7614 715.455H35.8636L40.8068 727.528H40.9773L45.9205 715.455H48.0227V730H46.375V718.949H46.233L41.6875 730H40.0966L35.5511 718.949H35.4091V730H33.7614V715.455ZM55.3589 730.227C54.374 730.227 53.5099 729.993 52.7665 729.524C52.0279 729.055 51.4503 728.4 51.0336 727.557C50.6217 726.714 50.4157 725.729 50.4157 724.602C50.4157 723.466 50.6217 722.474 51.0336 721.626C51.4503 720.779 52.0279 720.121 52.7665 719.652C53.5099 719.183 54.374 718.949 55.3589 718.949C56.3437 718.949 57.2055 719.183 57.9441 719.652C58.6875 720.121 59.2651 720.779 59.6771 721.626C60.0937 722.474 60.3021 723.466 60.3021 724.602C60.3021 725.729 60.0937 726.714 59.6771 727.557C59.2651 728.4 58.6875 729.055 57.9441 729.524C57.2055 729.993 56.3437 730.227 55.3589 730.227ZM55.3589 728.722C56.107 728.722 56.7225 728.53 57.2055 728.146C57.6884 727.763 58.0459 727.259 58.2779 726.634C58.5099 726.009 58.6259 725.331 58.6259 724.602C58.6259 723.873 58.5099 723.194 58.2779 722.564C58.0459 721.934 57.6884 721.425 57.2055 721.037C56.7225 720.649 56.107 720.455 55.3589 720.455C54.6108 720.455 53.9952 720.649 53.5123 721.037C53.0293 721.425 52.6719 721.934 52.4398 722.564C52.2078 723.194 52.0918 723.873 52.0918 724.602C52.0918 725.331 52.2078 726.009 52.4398 726.634C52.6719 727.259 53.0293 727.763 53.5123 728.146C53.9952 728.53 54.6108 728.722 55.3589 728.722ZM64.1368 723.438V730H62.4607V719.091H64.08V720.795H64.222C64.4777 720.241 64.866 719.796 65.3868 719.46C65.9076 719.119 66.58 718.949 67.4038 718.949C68.1425 718.949 68.7888 719.1 69.3428 719.403C69.8967 719.702 70.3276 720.156 70.6354 720.767C70.9431 721.373 71.097 722.14 71.097 723.068V730H69.4209V723.182C69.4209 722.325 69.1983 721.657 68.7533 721.179C68.3082 720.696 67.6974 720.455 66.9209 720.455C66.3858 720.455 65.9076 720.571 65.4862 720.803C65.0696 721.035 64.7405 721.373 64.499 721.818C64.2575 722.263 64.1368 722.803 64.1368 723.438ZM78.3337 730.227C77.2826 730.227 76.3759 729.995 75.6136 729.531C74.856 729.062 74.2712 728.409 73.8593 727.571C73.4521 726.728 73.2485 725.748 73.2485 724.631C73.2485 723.513 73.4521 722.528 73.8593 721.676C74.2712 720.819 74.8442 720.152 75.5781 719.673C76.3167 719.19 77.1784 718.949 78.1633 718.949C78.7315 718.949 79.2925 719.044 79.8465 719.233C80.4005 719.422 80.9048 719.73 81.3593 720.156C81.8138 720.578 82.1761 721.136 82.446 721.832C82.7158 722.528 82.8508 723.385 82.8508 724.403V725.114H74.4417V723.665H81.1462C81.1462 723.049 81.0231 722.5 80.7769 722.017C80.5354 721.534 80.1898 721.153 79.74 720.874C79.2949 720.594 78.7693 720.455 78.1633 720.455C77.4957 720.455 76.918 720.62 76.4303 720.952C75.9474 721.278 75.5757 721.705 75.3153 722.23C75.0549 722.756 74.9246 723.319 74.9246 723.92V724.886C74.9246 725.71 75.0667 726.409 75.3508 726.982C75.6396 727.55 76.0397 727.983 76.5511 728.281C77.0624 728.575 77.6567 728.722 78.3337 728.722C78.7741 728.722 79.1718 728.66 79.5269 728.537C79.8868 728.409 80.1969 728.22 80.4573 727.969C80.7177 727.713 80.919 727.396 81.061 727.017L82.6803 727.472C82.5099 728.021 82.2234 728.504 81.821 728.92C81.4185 729.332 80.9213 729.654 80.3295 729.886C79.7376 730.114 79.0724 730.227 78.3337 730.227ZM85.748 734.091C85.4639 734.091 85.2106 734.067 84.9881 734.02C84.7655 733.977 84.6116 733.935 84.5264 733.892L84.9526 732.415C85.3598 732.519 85.7196 732.557 86.0321 732.528C86.3446 732.5 86.6216 732.36 86.8631 732.109C87.1093 731.863 87.3342 731.463 87.5378 730.909L87.8503 730.057L83.8162 719.091H85.6344L88.6457 727.784H88.7594L91.7707 719.091H93.5889L88.9582 731.591C88.7499 732.154 88.4919 732.621 88.1841 732.99C87.8763 733.364 87.5188 733.641 87.1116 733.821C86.7092 734.001 86.2546 734.091 85.748 734.091ZM105.484 719.091V720.511H99.6035V719.091H105.484ZM101.365 730V717.585C101.365 716.96 101.512 716.439 101.805 716.023C102.099 715.606 102.48 715.294 102.949 715.085C103.417 714.877 103.912 714.773 104.433 714.773C104.845 714.773 105.181 714.806 105.442 714.872C105.702 714.938 105.896 715 106.024 715.057L105.541 716.506C105.456 716.477 105.337 716.442 105.186 716.399C105.039 716.357 104.845 716.335 104.604 716.335C104.05 716.335 103.649 716.475 103.403 716.754C103.162 717.034 103.041 717.443 103.041 717.983V730H101.365ZM111.416 730.227C110.431 730.227 109.567 729.993 108.824 729.524C108.085 729.055 107.507 728.4 107.091 727.557C106.679 726.714 106.473 725.729 106.473 724.602C106.473 723.466 106.679 722.474 107.091 721.626C107.507 720.779 108.085 720.121 108.824 719.652C109.567 719.183 110.431 718.949 111.416 718.949C112.401 718.949 113.262 719.183 114.001 719.652C114.745 720.121 115.322 720.779 115.734 721.626C116.151 722.474 116.359 723.466 116.359 724.602C116.359 725.729 116.151 726.714 115.734 727.557C115.322 728.4 114.745 729.055 114.001 729.524C113.262 729.993 112.401 730.227 111.416 730.227ZM111.416 728.722C112.164 728.722 112.78 728.53 113.262 728.146C113.745 727.763 114.103 727.259 114.335 726.634C114.567 726.009 114.683 725.331 114.683 724.602C114.683 723.873 114.567 723.194 114.335 722.564C114.103 721.934 113.745 721.425 113.262 721.037C112.78 720.649 112.164 720.455 111.416 720.455C110.668 720.455 110.052 720.649 109.569 721.037C109.086 721.425 108.729 721.934 108.497 722.564C108.265 723.194 108.149 723.873 108.149 724.602C108.149 725.331 108.265 726.009 108.497 726.634C108.729 727.259 109.086 727.763 109.569 728.146C110.052 728.53 110.668 728.722 111.416 728.722ZM118.518 730V719.091H120.137V720.739H120.251C120.45 720.199 120.809 719.761 121.33 719.425C121.851 719.089 122.438 718.92 123.092 718.92C123.215 718.92 123.369 718.923 123.553 718.928C123.738 718.932 123.878 718.939 123.972 718.949V720.653C123.915 720.639 123.785 720.618 123.582 720.589C123.383 720.556 123.172 720.54 122.95 720.54C122.419 720.54 121.946 720.651 121.529 720.874C121.117 721.091 120.79 721.394 120.549 721.783C120.312 722.166 120.194 722.604 120.194 723.097V730H118.518ZM131.011 730V715.455H132.688V720.824H132.83C132.953 720.634 133.123 720.393 133.341 720.099C133.563 719.801 133.881 719.536 134.293 719.304C134.709 719.067 135.273 718.949 135.983 718.949C136.902 718.949 137.711 719.179 138.412 719.638C139.113 720.097 139.66 720.748 140.053 721.591C140.446 722.434 140.642 723.428 140.642 724.574C140.642 725.729 140.446 726.731 140.053 727.578C139.66 728.421 139.115 729.074 138.419 729.538C137.723 729.998 136.92 730.227 136.011 730.227C135.311 730.227 134.75 730.111 134.328 729.879C133.907 729.643 133.582 729.375 133.355 729.077C133.128 728.774 132.953 728.523 132.83 728.324H132.631V730H131.011ZM132.659 724.545C132.659 725.369 132.78 726.096 133.021 726.726C133.263 727.351 133.616 727.841 134.08 728.196C134.544 728.546 135.112 728.722 135.784 728.722C136.485 728.722 137.07 728.537 137.538 728.168C138.012 727.794 138.367 727.292 138.604 726.662C138.845 726.027 138.966 725.322 138.966 724.545C138.966 723.778 138.848 723.087 138.611 722.472C138.379 721.851 138.026 721.361 137.553 721.001C137.084 720.637 136.494 720.455 135.784 720.455C135.102 720.455 134.529 720.627 134.065 720.973C133.601 721.314 133.251 721.792 133.014 722.408C132.777 723.018 132.659 723.731 132.659 724.545ZM147.38 730.227C146.329 730.227 145.422 729.995 144.66 729.531C143.902 729.062 143.317 728.409 142.905 727.571C142.498 726.728 142.295 725.748 142.295 724.631C142.295 723.513 142.498 722.528 142.905 721.676C143.317 720.819 143.89 720.152 144.624 719.673C145.363 719.19 146.225 718.949 147.209 718.949C147.778 718.949 148.339 719.044 148.893 719.233C149.447 719.422 149.951 719.73 150.405 720.156C150.86 720.578 151.222 721.136 151.492 721.832C151.762 722.528 151.897 723.385 151.897 724.403V725.114H143.488V723.665H150.192C150.192 723.049 150.069 722.5 149.823 722.017C149.582 721.534 149.236 721.153 148.786 720.874C148.341 720.594 147.815 720.455 147.209 720.455C146.542 720.455 145.964 720.62 145.476 720.952C144.993 721.278 144.622 721.705 144.361 722.23C144.101 722.756 143.971 723.319 143.971 723.92V724.886C143.971 725.71 144.113 726.409 144.397 726.982C144.686 727.55 145.086 727.983 145.597 728.281C146.109 728.575 146.703 728.722 147.38 728.722C147.82 728.722 148.218 728.66 148.573 728.537C148.933 728.409 149.243 728.22 149.503 727.969C149.764 727.713 149.965 727.396 150.107 727.017L151.726 727.472C151.556 728.021 151.27 728.504 150.867 728.92C150.465 729.332 149.967 729.654 149.376 729.886C148.784 730.114 148.118 730.227 147.38 730.227ZM158.791 719.091V720.511H153.137V719.091H158.791ZM154.785 716.477H156.461V726.875C156.461 727.348 156.53 727.704 156.667 727.94C156.809 728.172 156.989 728.329 157.207 728.409C157.43 728.485 157.664 728.523 157.91 728.523C158.095 728.523 158.246 728.513 158.365 728.494C158.483 728.471 158.578 728.452 158.649 728.438L158.99 729.943C158.876 729.986 158.718 730.028 158.514 730.071C158.31 730.118 158.052 730.142 157.74 730.142C157.266 730.142 156.802 730.04 156.348 729.837C155.898 729.633 155.524 729.323 155.226 728.906C154.932 728.49 154.785 727.964 154.785 727.33V716.477ZM165.657 719.091V720.511H160.003V719.091H165.657ZM161.651 716.477H163.327V726.875C163.327 727.348 163.396 727.704 163.533 727.94C163.675 728.172 163.855 728.329 164.073 728.409C164.295 728.485 164.53 728.523 164.776 728.523C164.961 728.523 165.112 728.513 165.23 728.494C165.349 728.471 165.443 728.452 165.514 728.438L165.855 729.943C165.742 729.986 165.583 730.028 165.38 730.071C165.176 730.118 164.918 730.142 164.605 730.142C164.132 730.142 163.668 730.04 163.213 729.837C162.764 729.633 162.389 729.323 162.091 728.906C161.798 728.49 161.651 727.964 161.651 727.33V716.477ZM172.235 730.227C171.183 730.227 170.277 729.995 169.514 729.531C168.757 729.062 168.172 728.409 167.76 727.571C167.353 726.728 167.149 725.748 167.149 724.631C167.149 723.513 167.353 722.528 167.76 721.676C168.172 720.819 168.745 720.152 169.479 719.673C170.217 719.19 171.079 718.949 172.064 718.949C172.632 718.949 173.193 719.044 173.747 719.233C174.301 719.422 174.806 719.73 175.26 720.156C175.715 720.578 176.077 721.136 176.347 721.832C176.617 722.528 176.752 723.385 176.752 724.403V725.114H168.342V723.665H175.047C175.047 723.049 174.924 722.5 174.678 722.017C174.436 721.534 174.091 721.153 173.641 720.874C173.196 720.594 172.67 720.455 172.064 720.455C171.396 720.455 170.819 720.62 170.331 720.952C169.848 721.278 169.476 721.705 169.216 722.23C168.956 722.756 168.825 723.319 168.825 723.92V724.886C168.825 725.71 168.967 726.409 169.252 726.982C169.54 727.55 169.94 727.983 170.452 728.281C170.963 728.575 171.557 728.722 172.235 728.722C172.675 728.722 173.073 728.66 173.428 728.537C173.788 728.409 174.098 728.22 174.358 727.969C174.619 727.713 174.82 727.396 174.962 727.017L176.581 727.472C176.411 728.021 176.124 728.504 175.722 728.92C175.319 729.332 174.822 729.654 174.23 729.886C173.638 730.114 172.973 730.227 172.235 730.227ZM178.901 730V719.091H180.521V720.739H180.634C180.833 720.199 181.193 719.761 181.714 719.425C182.235 719.089 182.822 718.92 183.475 718.92C183.598 718.92 183.752 718.923 183.937 718.928C184.121 718.932 184.261 718.939 184.356 718.949V720.653C184.299 720.639 184.169 720.618 183.965 720.589C183.766 720.556 183.556 720.54 183.333 720.54C182.803 720.54 182.329 720.651 181.913 720.874C181.501 721.091 181.174 721.394 180.933 721.783C180.696 722.166 180.577 722.604 180.577 723.097V730H178.901ZM192.844 715.455V730H191.168V715.455H192.844ZM195.514 730V719.091H197.19V730H195.514ZM196.366 717.273C196.039 717.273 195.758 717.161 195.521 716.939C195.289 716.716 195.173 716.449 195.173 716.136C195.173 715.824 195.289 715.556 195.521 715.334C195.758 715.111 196.039 715 196.366 715C196.693 715 196.972 715.111 197.204 715.334C197.441 715.556 197.559 715.824 197.559 716.136C197.559 716.449 197.441 716.716 197.204 716.939C196.972 717.161 196.693 717.273 196.366 717.273ZM204.718 719.091V720.511H198.837V719.091H204.718ZM200.599 730V717.585C200.599 716.96 200.745 716.439 201.039 716.023C201.332 715.606 201.714 715.294 202.182 715.085C202.651 714.877 203.146 714.773 203.667 714.773C204.079 714.773 204.415 714.806 204.675 714.872C204.936 714.938 205.13 715 205.258 715.057L204.775 716.506C204.689 716.477 204.571 716.442 204.42 716.399C204.273 716.357 204.079 716.335 203.837 716.335C203.283 716.335 202.883 716.475 202.637 716.754C202.395 717.034 202.275 717.443 202.275 717.983V730H200.599ZM210.792 730.227C209.74 730.227 208.834 729.995 208.071 729.531C207.314 729.062 206.729 728.409 206.317 727.571C205.91 726.728 205.706 725.748 205.706 724.631C205.706 723.513 205.91 722.528 206.317 721.676C206.729 720.819 207.302 720.152 208.036 719.673C208.775 719.19 209.636 718.949 210.621 718.949C211.189 718.949 211.75 719.044 212.304 719.233C212.858 719.422 213.363 719.73 213.817 720.156C214.272 720.578 214.634 721.136 214.904 721.832C215.174 722.528 215.309 723.385 215.309 724.403V725.114H206.9V723.665H213.604C213.604 723.049 213.481 722.5 213.235 722.017C212.993 721.534 212.648 721.153 212.198 720.874C211.753 720.594 211.227 720.455 210.621 720.455C209.953 720.455 209.376 720.62 208.888 720.952C208.405 721.278 208.033 721.705 207.773 722.23C207.513 722.756 207.382 723.319 207.382 723.92V724.886C207.382 725.71 207.525 726.409 207.809 726.982C208.097 727.55 208.498 727.983 209.009 728.281C209.52 728.575 210.114 728.722 210.792 728.722C211.232 728.722 211.63 728.66 211.985 728.537C212.345 728.409 212.655 728.22 212.915 727.969C213.176 727.713 213.377 727.396 213.519 727.017L215.138 727.472C214.968 728.021 214.681 728.504 214.279 728.92C213.876 729.332 213.379 729.654 212.787 729.886C212.195 730.114 211.53 730.227 210.792 730.227Z" fill="#94A3B8"/>
<path d="M176 568.5C187.73 556.296 196.761 551.385 217.124 545.946" stroke="#64748B" stroke-width="1.5"/>
<path d="M131 582.5C136.78 576.398 141.23 573.942 151.264 571.223" stroke="#64748B" stroke-width="1.5"/>
<path d="M139.5 519.5C133.599 529.819 128.201 534.572 114.954 541.276" stroke="#64748B" stroke-width="1.5"/>
<path d="M0 466C60.8057 483.652 104.168 500.261 168.5 506.5C149.41 522.779 130.5 543.5 125.5 563.5C168.5 556 220 528.5 254.5 506.5C343.483 500.505 356.642 498.143 441.5 476.5" stroke="#64748B" stroke-width="1.5"/>
</g>
<defs>
<clipPath id="clip0_2312_7610">
<rect width="428" height="937" fill="white"/>
</clipPath>
</defs>
</svg>
